<?xml version="1.0" standalone="no"?>
<!DOCTYPE svg PUBLIC "-//W3C//DTD SVG 1.1//EN" "http://www.w3.org/Graphics/SVG/1.1/DTD/svg11.dtd" >
<!--
2013-9-30: Created.
-->
<svg>
<metadata>
Created by iconfont
</metadata>
<defs>

<font id="iconfont" horiz-adv-x="1024" >
  <font-face
    font-family="iconfont"
    font-weight="500"
    font-stretch="normal"
    units-per-em="1024"
    ascent="896"
    descent="-128"
  />
    <missing-glyph />
    
    <glyph glyph-name="mobile" unicode="&#61731;" d="M736 896l-448 0c-52.8 0-96-43.2-96-96l0-832c0-52.8 43.2-96 96-96l448 0c52.8 0 96 43.2 96 96l0 832c0 52.8-43.2 96-96 96zM384 848l256 0 0-32-256 0 0 32zM512-64c-35.346 0-64 28.654-64 64s28.654 64 64 64 64-28.654 64-64-28.654-64-64-64zM768 128l-512 0 0 640 512 0 0-640z"  horiz-adv-x="1024" />

    
    <glyph glyph-name="success" unicode="&#61441;" d="M510.545 867.78c-267.043 0-483.521-216.477-483.521-483.52s216.479-483.521 483.521-483.521 483.52 216.479 483.52 483.521S777.588 867.78 510.545 867.78zM776.855 488.145l-315.37-315.37c-9.763-9.763-22.559-14.645-35.355-14.645-12.796 0-25.592 4.882-35.355 14.645l-176.13 176.13c-19.526 19.525-19.526 51.184 0 70.71 19.526 19.526 51.184 19.527 70.711 0L426.13 278.841l280.015 280.015c19.527 19.526 51.184 19.526 70.711 0C796.382 539.329 796.382 507.671 776.855 488.145z"  horiz-adv-x="1024" />

    
    <glyph glyph-name="cc-plane" unicode="&#61488;" d="M944.259376 827.575608c-4.637624 2.90926-9.585309 4.364401-14.810311 4.364401-1.173732 0-2.50403-0.154519-3.956102-0.464581-1.454118-0.278339-2.75167-0.556679-3.926426-0.86674-1.175779-0.278339-2.474354-0.711198-3.926426-1.300622-1.454118-0.587378-2.783393-1.175779-3.958148-1.76418L76.088444 268.526035c-9.305947-6.40692-13.387915-15.257495-12.242835-26.617218 1.174756-11.359722 6.987135-19.065218 17.467837-23.150256l219.013109-87.341231 102.056374-179.943278c5.223978-9.31618 13.386892-13.989619 24.424272-13.989619 10.480702 0 18.333554 4.673439 23.589254 13.989619l58.462506 96.099708 270.489504-108.325148 10.450003-1.76418c4.669346 0 9.305947 1.174756 13.974269 3.497661 7.543813 4.672416 12.213159 11.358699 13.94357 20.117177l139.216715 836.051397 0 13.804401c-1.669012 6.53074-5.872754 12.039197-12.706393 16.588817L944.259376 827.575608zM151.154094 251.101177l647.426389 432.371428L328.275093 178.58560699999998c-0.555655 0.588401-1.452071 1.176802-2.62785 1.765203l-1.731434 1.765203-3.493567 1.76418L151.154094 251.101177zM348.371804 159.36586999999997l528.736173 566.848189L426.033581 23.093207000000007 348.371804 159.36586999999997zM768.033769 4.769886000000042L529.851065 99.97215500000004c-4.668323 1.765203-10.479679 2.90926-17.46579 3.498684l367.319853 569.478086L768.033769 4.769886000000042z"  horiz-adv-x="1024" />

    
    <glyph glyph-name="star1" unicode="&#61747;" d="M512 160l-264.021333-160 70.016 299.989333-232.021333 201.984 306.005333 25.984 120.021333 281.984 120.021333-281.984 306.005333-25.984-232.021333-201.984 70.016-299.989333z"  horiz-adv-x="1024" />

    
    <glyph glyph-name="starhalf" unicode="&#61748;" d="M512 237.99466700000005l160-96-41.984 182.016 141.994667 123.989333-187.989333 16-72.021333 171.989333 0-397.994667zM937.984 502.016l-232.021333-201.984 70.016-299.989333-264.021333 160-264.021333-160 70.016 299.989333-232.021333 201.984 306.005333 25.984 120.021333 281.984 120.021333-281.984z"  horiz-adv-x="1024" />

    
    <glyph glyph-name="staroutline" unicode="&#61749;" d="M512 237.99466700000005l160-96-41.984 182.016 141.994667 123.989333-187.989333 16-72.021333 171.989333-72.021333-171.989333-187.989333-16 141.994667-123.989333-41.984-182.016zM937.984 502.016l-232.021333-201.984 70.016-299.989333-264.021333 160-264.021333-160 70.016 299.989333-232.021333 201.984 306.005333 25.984 120.021333 281.984 120.021333-281.984z"  horiz-adv-x="1024" />

    
    <glyph glyph-name="warning2" unicode="&#61443;" d="M512-128C229.232-128 0 101.23199999999997 0 384 0 666.768 229.232 896 512 896c282.768 0 512-229.232 512-512C1024 101.23199999999997 794.768-128 512-128zM560 656c0 26.512-21.488 48-48 48s-48-21.488-48-48l0-352c0-26.512 21.488-48 48-48s48 21.488 48 48L560 656zM512 160c-26.512 0-48-21.488-48-48s21.488-48 48-48 48 21.488 48 48S538.512 160 512 160z"  horiz-adv-x="1024" />

    
    <glyph glyph-name="i-safe" unicode="&#61493;" d="M892.761 735.2760000000001v-426.504c0-25.588-6.419-51.036-19.177-76.339-12.798-25.336-29.547-49.86-50.254-73.627-20.707-23.79-44.372-46.296-70.97-67.516-26.589-21.244-53.543-40.177-80.921-56.768-27.363-16.623-53.968-30.461-79.801-41.438-25.809-11.008-48.433-18.547-67.871-22.64l-9.203-1.53-8.43 1.53c-19.958 4.093-43.094 11.632-69.432 22.64-26.337 10.969-53.708 24.816-82.08 41.438-28.388 16.591-56.256 35.524-83.618 56.768-27.378 21.219-51.776 43.725-73.265 67.516-21.488 23.759-38.868 48.291-52.155 73.627-13.319 25.305-19.974 50.759-19.974 76.339v426.504l31.455 4.629 352.892 65.97 359.784-65.97 23.017-4.629zM510.028 744.116l-4.211 0.844-302.89-51.476v-269.101h307.102v319.734zM815.434 424.366h-305.406v-383.031c19.682 4.51 41.052 11.411 64.141 20.692 23.033 9.249 45.815 20.234 68.304 32.867 22.513 12.672 44.159 26.739 64.969 42.203 20.818 15.472 39.23 32.047 55.277 49.797 16.024 17.703 28.822 36.131 38.386 55.222 9.549 19.131 14.328 38.553 14.328 58.235v124.015z"  horiz-adv-x="1024" />

    
    <glyph glyph-name="shoucang" unicode="&#61522;" d="M895.40992 577.28L628.52992 578.56 540.84992 850.56c0 0.64-0.64 0.64-0.64 1.92C529.32992 881.28 504.36992 896 479.40992 896 454.44992 896 429.48992 881.28 418.60992 852.48c0-0.64-0.64-0.64-0.64-1.92L330.28992 578.56 63.40992 577.28C1.96992 576-22.99008 498.56 25.64992 459.52l213.12-168.96-77.44-266.88C147.24992-23.039999999999964 183.08992-64 223.40992-64c12.16 0 24.96 3.84 36.48 12.16l219.52 160 219.52-160C710.44992-60.15999999999997 723.24992-64 735.40992-64c39.68 0 75.52 40.32 61.44 87.68l-77.44 266.88 213.12 168.96C981.16992 498.56 956.84992 576 895.40992 577.28zM678.44992 347.52c-23.04-17.92-32.64-48.64-24.32-77.44l74.24-256.64L518.44992 167.03999999999996c-11.52 8.32-25.6 12.8-39.04 12.8-13.44 0-27.52-4.48-39.04-12.8l-210.56-152.96 74.24 256.64c8.32 28.8-1.28 59.52-24.32 77.44L75.56992 512l256-0.64C359.72992 512 385.32992 531.2 394.28992 559.36l84.48 259.2 84.48-257.28C573.48992 533.12 598.44992 513.9200000000001 627.24992 513.28l257.92 0.64L678.44992 347.52z"  horiz-adv-x="1025" />

    
    <glyph glyph-name="shoucang2" unicode="&#61523;" d="M895.40992 577.28L628.52992 578.56 540.84992 850.56c0 0.64-0.64 0.64-0.64 1.92C529.32992 881.28 504.36992 896 479.40992 896 454.44992 896 429.48992 881.28 418.60992 852.48c0-0.64-0.64-0.64-0.64-1.92L330.28992 578.56 63.40992 577.28C1.96992 576-22.99008 498.56 25.64992 459.52l213.12-168.96-77.44-266.88C147.24992-23.039999999999964 183.08992-64 223.40992-64c12.16 0 24.96 3.84 36.48 12.16l219.52 160 219.52-160C710.44992-60.15999999999997 723.24992-64 735.40992-64c39.68 0 75.52 40.32 61.44 87.68l-77.44 266.88 213.12 168.96C981.80992 498.56 956.84992 576 895.40992 577.28z"  horiz-adv-x="1025" />

    
    <glyph glyph-name="shujuzidingyishezhi" unicode="&#61717;" d="M64.081992 64.4665l191.719486 0 0 511.25401L64.081992 575.720509 64.081992 64.4665zM127.988488 511.814014l63.906495 0 0-383.441019L127.988488 128.37299499999995 127.988488 511.814014zM511.4336 192.279491L511.4336 831.349561 319.707974 831.349561 319.707974 64.4665 383.614469 64.4665 383.614469 767.443066 447.520965 767.443066 447.520965 192.279491ZM639.246591 639.630075L703.153086 639.630075 703.153086 384.001023 767.059582 384.001023 767.059582 703.53657 575.340095 703.53657 575.340095 320.09350500000005 639.246591 320.09350500000005ZM939.432441 313.41540799999996l-46.057989 52.422953c-12.231579 12.232602-28.395724 18.286482-44.559868 18.162662-16.163121-0.125867-33.013905-6.365988-45.370327-18.723434L447.520965 74.51434300000005l0-137.861858 137.431046 0L938.996512 223.920118C963.71038 248.69743100000005 963.835224 289.013649 939.432441 313.41540799999996zM562.234613 0.560004000000049l-50.801013 0L511.4336 51.86141399999997l336.25944 268.544199c0 0 0.312108-0.312108 0.436952-0.312108l0.188288 0 45.620014-52.54882L562.234613 0.560004000000049z"  horiz-adv-x="1024" />

    
    <glyph glyph-name="search" unicode="&#61490;" d="M918.976 73.53599999999994l-144.832 144.896c-1.408 1.408-2.944 2.816-4.48 4.096 101.056 146.24 86.464 348.288-43.776 478.528-146.624 146.624-384.384 146.624-531.008 0s-146.624-384.32 0-530.944c130.24-130.176 332.224-144.832 478.592-43.776 1.344-1.536 2.688-3.072 4.096-4.48l144.896-144.832c26.816-26.88 69.888-26.688 96.512 0C945.856 3.9039999999999964 945.664 46.912000000000035 918.976 73.53599999999994zM677.696 218.36800000000005c-120-119.936-314.56-119.936-434.496 0C123.2 338.36800000000005 123.2 532.864 243.2 652.8s314.496 120 434.496 0C797.632 532.864 797.632 338.36800000000005 677.696 218.36800000000005z"  horiz-adv-x="1024" />

    
    <glyph glyph-name="check" unicode="&#61460;" d="M416.832 97.91999999999996C400.64 97.91999999999996 384.512 104.12800000000004 372.16 116.48000000000002L119.424 370.24C94.784 395.008 94.784 435.2 119.424 459.968 144.128 484.736 184.128 484.736 208.768 459.968L416.832 251.072 814.4 650.24C839.04 675.072 879.04 675.072 903.744 650.24 928.384 625.472 928.384 585.344 903.744 560.576L461.504 116.48000000000002C449.152 104.12800000000004 432.96 97.91999999999996 416.832 97.91999999999996Z"  horiz-adv-x="1024" />

    
    <glyph glyph-name="phone6dianhua" unicode="&#61732;" d="M995.320083 95.19446500000004C1005.764037 84.75051099999996 1010.16688 75.02329899999995 1008.733397 66.11522100000002L1006.480779 50.44929000000002c-5.938719-14.949189-14.539622-31.024687-25.700318-48.124102C969.517373-14.876619000000005 956.10406-31.56646699999999 940.438129-48.05153199999995 924.772197-64.43420500000002 908.082349-79.28100199999994 890.163801-92.79670699999997c-17.918549-13.413314-35.837097-24.57401-53.653254-33.58448-35.837097-4.505235-71.98137 0.409567-108.535209 14.539622C691.421499-97.50672599999996 657.529844-81.53362000000004 626.197982-63.71746299999995c-92.459711 52.21977-180.823753 118.160029-265.092128 197.923168C276.83748 214.071236 202.603493 296.49656000000004 138.506285 381.481676c-17.918549 26.826627-35.837097 55.905872-53.653254 87.237734C66.934482 500.051272 51.268551 530.5640000000001 37.855238 560.462379 24.441924 590.258365 14.407537 618.211301 7.649684 644.321186c-6.757853 26.007493-7.884161 47.304968-3.378926 63.790033C10.209477 722.958016 19.629514 739.443081 32.223694 757.259238s27.236194 34.710788 43.618867 50.376719c16.382673 15.665931 33.58448 29.795987 51.503028 42.492558 17.918549 12.59418 35.837097 21.297475 53.653254 25.700318l26.826627 0c11.97983-3.071751 20.887908-8.191337 26.826627-15.665931C240.693208 852.688308 247.348669 844.496972 254.823263 835.588893c35.837097-58.158489 76.077038-117.852854 120.822213-178.980703 14.949189-23.857268 16.382673-48.431277 4.505235-73.82442-2.969359-4.505235-7.474595-12.287005-13.413314-23.447701C360.696288 548.1753739999999 354.348002 536.6051110000001 347.692541 524.625281 340.934688 512.645452 335.712711 501.484756 332.02661 491.143193 328.238117 480.699239 327.930942 473.941387 330.900301 470.972027c38.806457-53.653254 82.015757-100.651047 129.730292-140.890988 47.714535-40.239941 94.712328-83.551632 140.890988-129.730292 7.474595-3.071751 13.413314-3.071751 17.918549 0 13.413314 7.474595 28.362503 15.665931 44.745176 24.57401 16.382673 8.908078 32.765346 17.099415 49.250411 24.57401C735.757108 259.942721 760.433509 258.406845 787.260136 244.99353199999996c29.795987-20.887908 60.00154-41.366249 90.61666-61.537415 30.61512-20.171166 60.00154-40.649507 88.364043-61.537415C975.148917 114.44410600000003 984.876129 105.53602799999999 995.320083 95.19446500000004zM975.148917 394.89499c11.97983 0 17.918549 5.938719 17.918549 17.918549 0 134.235527-46.997793 248.299888-140.890988 342.295474C758.180891 849.002207 644.116531 896 509.881004 896 497.901174 896 491.962455 890.061281 491.962455 878.081451c0-11.97983 5.938719-17.918549 17.918549-17.918549 125.225057 0 230.381339-44.028434 315.468847-131.982909 87.954476-84.985116 131.982909-190.141399 131.982909-315.468847C957.230368 400.833708 963.271479 394.89499 975.148917 394.89499zM832.005312 394.89499c11.97983 0 17.918549 5.938719 17.918549 17.918549 0 95.42907-33.58448 175.192209-100.651047 239.391809C685.073213 719.271915 605.310074 752.856395 509.881004 752.856395c-11.97983 0-17.918549-5.938719-17.918549-17.918549 0-11.97983 5.938719-17.918549 17.918549-17.918549 83.551632 0 155.123435-29.898378 214.715408-89.490351 59.694365-59.694365 89.490351-131.266167 89.490351-214.715408C814.086763 400.833708 820.025482 394.89499 832.005312 394.89499zM688.861706 394.89499c11.97983 0 17.918549 5.938719 17.918549 17.918549 0 56.725005-19.352032 102.903665-58.158489 138.740762-35.837097 38.806457-82.015757 58.158489-138.740762 58.158489-11.97983 0-17.918549-5.938719-17.918549-17.918549 0-11.97983 5.938719-17.918549 17.918549-17.918549 44.745176 0 82.732499-15.665931 114.064361-46.997793 31.331862-31.331862 46.997793-69.319185 46.997793-114.064361C670.943158 400.833708 676.881877 394.89499 688.861706 394.89499z"  horiz-adv-x="1026" />

    
    <glyph glyph-name="arrowdown" unicode="&#61480;" d="M472.064 144.44799999999998L72.832 543.6800000000001c-22.08 22.08-22.08 57.792 0 79.872 22.016 22.016 57.792 22.08 79.872 0L512 264.256l359.296 359.296c22.016 22.016 57.792 22.08 79.872 0 22.08-22.08 22.016-57.792 0-79.872l-399.232-399.232C529.856 122.43200000000002 494.144 122.43200000000002 472.064 144.44799999999998z"  horiz-adv-x="1024" />

    
    <glyph glyph-name="arrowon" unicode="&#61479;" d="M472.064 623.552l-399.232-399.232c-22.08-22.08-22.08-57.792 0-79.872 22.016-22.016 57.792-22.08 79.872 0L512 503.744l359.296-359.296c22.016-22.016 57.792-22.08 79.872 0 22.08 22.08 22.016 57.792 0 79.872L551.936 623.552C529.856 645.568 494.144 645.568 472.064 623.552z"  horiz-adv-x="1024" />

    
    <glyph glyph-name="planec" unicode="&#61481;" d="M908.647297 830.370257c10.293437-7.487531 14.502295-17.464767 12.631692-29.939893L801.524534 81.89340400000003c-1.558495-9.046027-6.551206-16.060791-14.969946-21.049409-4.365424-2.494821-9.201569-3.745301-14.502295-3.745301-3.430122 0-7.17133 0.783853-11.228739 2.342348l-211.912387 86.541005L435.706895 7.979998000000023c-5.615904-7.17133-13.254885-10.756995-22.924105-10.756995-4.053316 0-7.483438 0.623193-10.293437 1.870604-5.92392 2.182712-10.680247 5.848195-14.265912 10.992355s-5.380544 10.836813-5.380544 17.076934L382.842897 190.42423599999995 787.022239 685.82007 286.943756 253.10583399999996l-184.7784 75.785034c-11.539824 4.365424-17.775852 12.942777-18.711154 25.731034-0.624217 12.472056 4.364401 21.672602 14.969946 27.596522l778.412652 449.088158c4.680603 2.805906 9.66922 4.208858 14.969946 4.208858C898.046868 835.514417 903.658679 833.799356 908.647297 830.370257L908.647297 830.370257zM908.647297 830.370257"  horiz-adv-x="1024" />

    
    <glyph glyph-name="arrow-left" unicode="&#61478;" d="M700.269-34.666000000000054c-14.331 0-27.677 5.512-37.657 15.529l-365.34 365.99c-1.337 1.306-2.38 2.417-3.234 3.607l-2.16 2.723c-10.653 10.703-15.888 23.296-15.888 36.627 0 13.571 5.351 26.26 15.053 35.73l367.853 363.953c9.951 9.813 23.238 15.222 37.401 15.222 13.848 0 26.931-5.25 36.832-14.769 9.841-9.549 15.507-22.867 15.506-36.518 0-13.484-5.365-26.259-15.134-35.969l-331.846-328.283 336.081-336.964c9.607-9.666 14.915-22.296 14.915-35.619 0-13.958-5.673-27.055-15.937-36.876-9.768-9.271-22.734-14.381-36.444-14.381z"  horiz-adv-x="1024" />

    
    <glyph glyph-name="youjian3" unicode="&#61574;" d="M913.066667 782.222222l-796.444444 0C56.888889 782.222222 8.533333 733.866667 8.533333 676.977778l0-486.4c0-56.888889 48.355556-105.244444 105.244444-105.244444l799.288889 0c56.888889 0 105.244444 48.355556 105.244444 105.244444L1018.311111 676.977778C1021.155556 733.866667 972.8 782.222222 913.066667 782.222222zM978.488889 676.977778l0-486.4c0-8.533333-2.844444-17.066667-5.688889-25.6L696.888889 440.888889 967.111111 711.1111109999999C972.8 699.733333 978.488889 688.355556 978.488889 676.977778zM913.066667 739.555556c8.533333 0 14.222222-2.844444 22.755556-2.844444l-2.844444 0L560.355556 361.24444400000004c-22.755556-22.755556-65.422222-22.755556-91.022222 0L96.711111 733.866667 93.866667 733.866667c5.688889 2.844444 14.222222 2.844444 22.755556 2.844444L913.066667 739.555556 913.066667 739.555556zM56.888889 164.97777799999994c-2.844444 8.533333-5.688889 14.222222-5.688889 22.755556L51.2 676.977778c0 11.377778 2.844444 25.6 11.377778 34.133333l270.222222-270.222222L56.888889 164.97777799999994zM116.622222 125.15555600000005c-11.377778 0-19.911111 2.844444-31.288889 8.533333l275.911111 275.911111 79.644444-79.644444c19.911111-19.911111 45.511111-31.288889 73.955556-31.288889s54.044444 11.377778 73.955556 31.288889l76.8 76.8 275.911111-275.911111c-8.533333-5.688889-19.911111-8.533333-31.288889-8.533333L116.622222 122.31111099999998 116.622222 125.15555600000005z"  horiz-adv-x="1024" />

    
    <glyph glyph-name="gongju" unicode="&#61767;" d="M536.508695 380.96282699999995L533.082666 389.090948 528.910647 385.681292ZM431.339424 346.30447000000004L194.782753 346.30447000000004c-21.871123 0-39.666418-17.796318-39.666418-39.667441l0-236.553601c0-21.87317 17.795295-39.667441 39.666418-39.667441l236.556671 0c21.871123 0 39.665395 17.794271 39.665395 39.667441L471.004819 306.637028C471.004819 328.508151 453.210547 346.30447000000004 431.339424 346.30447000000004zM430.205601 71.21929699999998L195.9176 71.21929699999998 195.9176 305.50218199999995l234.288001 0L430.205601 71.21929699999998zM192.211185 387.75758l236.557694 0c21.871123 0 39.665395 17.794271 39.665395 39.664372l0 236.557694c0 21.871123-17.794271 39.664372-39.665395 39.664372L192.211185 703.644017c-21.871123 0-39.664372-17.793248-39.664372-39.664372l0-236.557694C152.547837 405.551852 170.340061 387.75758 192.211185 387.75758zM193.349101 662.844799l234.284931 0 0-234.285954L193.349101 428.558845 193.349101 662.844799zM813.097104 348.872968L576.541457 348.872968c-21.862937 0-39.646975-17.794271-39.646975-39.665395l0-236.555647c0-21.871123 17.784038-39.665395 39.646975-39.665395l236.555647 0c21.881356 0 39.683814 17.794271 39.683814 39.665395L852.780919 309.207573C852.780919 331.07869700000003 834.978461 348.872968 813.097104 348.872968zM811.980677 73.78677300000004L577.69677 73.78677300000004 577.69677 308.072727l234.283908 0L811.980677 73.78677300000004zM859.52553 581.672058L720.943264 720.254324c-7.087419 7.064906-16.504906 10.956539-26.51591 10.956539-10.008958 0-19.422352-3.891633-26.5374-10.981099L529.377274 581.696618c-7.110955-7.089465-11.026124-16.522302-11.026124-26.561959s3.91517-19.473517 11.000542-26.536376l138.539286-138.559752c7.080256-7.080256 16.501836-10.980076 26.529213-10.980076 10.016121 0 19.436678 3.891633 26.547633 10.980076L859.550089 528.619772C874.147552 543.26226 874.136296 567.0602690000001 859.52553 581.672058zM694.429401 424.58637L563.900555 555.134659 694.429401 685.681924l130.547265-130.547265L694.429401 424.58637z"  horiz-adv-x="1024" />

    
    <glyph glyph-name="time" unicode="&#61728;" d="M512.855 804.481c-232.507 0-421.632-189.126-421.632-421.527 0-232.436 189.126-421.492 421.632-421.492 232.472 0 421.597 189.055 421.597 421.492 0 232.403-189.125 421.527-421.597 421.527zM512.855 38.96500000000003c-189.752 0-344.094 154.308-344.094 343.988 0 189.683 154.343 343.99 344.094 343.99 189.682 0 344.025-154.308 344.025-343.99 0-189.682-154.343-343.988-344.025-343.988zM712.843 278.538l-161.236 104.625 0 211.582c0 21.411-17.303 38.786-38.751 38.786s-38.785-17.375-38.785-38.786l0-253.674 196.506-127.569c6.58-4.248 13.891-6.267 21.098-6.267 12.71 0 25.174 6.199 32.555 17.652 11.699 18.001 6.545 41.989-11.386 53.652z"  horiz-adv-x="1024" />

    
    <glyph glyph-name="notice_fill" unicode="&#61733;" d="M891.092765 216.32239300000003c-63.688149 66.97533-102.789127 157.565015-102.789127 257.325856 0 17.549937-0.031381 51.692685-0.031382 51.692684-0.486409 123.124146-79.370905 227.694156-189.275719 266.410714 0.243204 2.800772 0.431492 5.617235 0.431492 8.48077 0 52.806718-42.929484 95.767583-95.704821 95.767583S408.018387 853.04698 408.018387 800.2324169999999c0-3.12243 0.172597-6.213478 0.470718-9.257455-108.704483-39.359873-186.482792-143.365021-186.969201-265.634029 0 0-0.031381-34.142748-0.031381-51.692684 0-100.694432-39.822745-192.060801-104.562165-259.224419-40.575894-42.097882-30.439766-110.752107 21.339218-137.889001a779.705188 779.705188 0 0 1 225.348411-77.02516c8.927952-69.485826 68.27765-123.390886 140.109221-123.390886 72.027704 0 131.526463 54.211026 140.19552 123.971438a779.775796 779.775796 0 0 1 225.528853 78.280408c51.559315 27.348717 61.86804 95.649903 21.645184 137.951764zM503.723208 848.928197c25.607061 0 46.601085-19.927063 48.452576-45.102632a284.556894 284.556894 0 0 1-47.275781 4.001103c-16.945849 0-33.522969-1.576905-49.645061-4.42475 1.639668 25.379547 22.71999 45.526279 48.468266 45.526279z m0-925.745457c-43.258987 0-79.723943 29.341424-90.793662 69.164169 29.278661-3.310717 59.028041-5.099445 89.193221-5.099445 31.302749 0 62.15047 1.898563 92.488247 5.460329-10.952039-39.995342-47.495449-69.525053-90.887806-69.525053z"  horiz-adv-x="1024" />

    
    <glyph glyph-name="warning-sign" unicode="&#61444;" d="M512 704c-38.4 0-64-25.6-64-64s25.6-64 64-64 64 25.6 64 64-25.6 64-64 64zM512 448v-320 320m0 64c-38.4 0-64-25.6-64-64v-320c0-38.4 25.6-64 64-64s64 25.6 64 64V448c0 38.4-25.6 64-64 64zM512 832c249.6 0 448-198.4 448-448s-198.4-448-448-448-448 198.4-448 448 198.4 448 448 448m0 64C230.4 896 0 665.6 0 384s230.4-512 512-512 512 230.4 512 512-230.4 512-512 512z"  horiz-adv-x="1024" />

    
    <glyph glyph-name="cuohao" unicode="&#61459;" d="M882.048 686.784L209.28 13.951999999999998c-18.624-18.56-48.768-18.56-67.328 0s-18.56 48.704 0 67.328L814.72 754.048c18.624 18.56 48.768 18.56 67.328 0 18.56-18.56 18.56-48.704 0-67.264zM882.048 13.951999999999998c-18.56-18.56-48.704-18.56-67.328 0L141.952 686.784c-18.56 18.624-18.56 48.704 0 67.264 18.56 18.56 48.704 18.56 67.328 0L882.048 81.27999999999997c18.56-18.624 18.56-48.768 0-67.328z"  horiz-adv-x="1024" />

    
    <glyph glyph-name="tubiao-bingtu" unicode="&#61702;" d="M128 832H64v-896h896v64H128V832zM480 636.8V320h278.4c-28.8-108.8-128-192-246.4-192-140.8 0-256 115.2-256 256 0 131.2 99.2 236.8 224 252.8m32 67.2c-176 0-320-144-320-320s144-320 320-320 320 144 320 320H544V704h-32zM672 761.6c124.8-22.4 201.6-112 220.8-249.6H672V761.6M608 832v-384h352c0 224-128 384-352 384z"  horiz-adv-x="1024" />

    
    <glyph glyph-name="notice_forbid_fill" unicode="&#61734;" d="M950.4 54.39999999999998l-89.6 86.4s0 3.2-3.2 3.2c0 3.2-118.4 166.4-118.4 288 0 169.6-76.8 256-163.2 288V736c0 54.4-41.6 96-96 96s-96-41.6-96-96v-16c-28.8-9.6-54.4-25.6-76.8-48L214.4 758.4c-12.8 12.8-32 12.8-44.8 0s-12.8-32 0-44.8l736-704c6.4-6.4 12.8-9.6 22.4-9.6 9.6 0 16 3.2 22.4 9.6 12.8 12.8 12.8 32 0 44.8zM448 736c0 19.2 12.8 32 32 32s32-12.8 32-32h-64zM220.8 435.2c0-121.6-118.4-284.8-118.4-288-6.4-6.4-6.4-16-6.4-25.6 3.2-9.6 6.4-16 16-22.4 6.4-3.2 108.8-57.6 233.6-83.2 22.4-67.2 73.6-112 134.4-112s112 44.8 134.4 112c48 9.6 96 25.6 134.4 38.4L233.6 544c-6.4-32-12.8-67.2-12.8-108.8zM480 0c19.2 0 38.4 0 57.6 3.2-16-22.4-35.2-35.2-57.6-35.2s-41.6 12.8-57.6 35.2c19.2-3.2 38.4-3.2 57.6-3.2z"  horiz-adv-x="1024" />

    
    <glyph glyph-name="empty" unicode="&#61492;" d="M968.347826 376.475826v-422.956522c0-15.582609-11.130435-26.713043-26.713043-26.713043H80.13913c-15.582609 0-28.93913 11.130435-28.93913 26.713043v422.956522h291.617391c6.678261-35.617391 22.26087-71.234783 51.2-97.947826 31.165217-31.165217 73.46087-46.747826 117.982609-46.747826s84.591304 17.808696 117.982609 46.747826c26.713043 26.713043 44.521739 60.104348 51.2 97.947826h287.165217zM658.921739 425.449739c-13.356522 0-22.26087-11.130435-22.260869-24.486956 0-66.782609-55.652174-122.434783-122.434783-122.434783s-122.434783 55.652174-122.434783 122.434783c0 13.356522-11.130435 24.486957-22.260869 24.486956H93.495652l146.921739 133.565218h545.391305l144.695652-133.565218H658.921739z m351.721739-2.226087L814.747826 603.536696c-4.452174 6.678261-13.356522 8.904348-22.260869 8.904347H231.513043c-8.904348 0-17.808696-4.452174-22.260869-8.904347L11.130435 423.223652c-6.678261-6.678261-11.130435-17.808696-11.130435-26.713043v-440.765218c0-44.521739 35.617391-80.13913 80.13913-80.13913h861.495653c44.521739 0 80.13913 35.617391 80.13913 80.13913V396.510609c2.226087 8.904348-4.452174 20.034783-11.130435 26.713043zM589.913043 127.154087c2.226087-11.130435 11.130435-15.582609 31.165218-13.356522 33.391304 6.678261 48.973913 2.226087 57.878261 4.452174 8.904348 4.452174 11.130435 17.808696-4.452174 22.26087-15.582609 6.678261-33.391304-2.226087-35.617391 2.226087-2.226087 2.226087 4.452174 8.904348 17.808695 11.130434 15.582609 4.452174 31.165217 4.452174 28.939131 15.582609-4.452174 15.582609-26.713043 17.808696-44.52174 13.356522-22.26087-2.226087-55.652174-28.93913-51.2-55.652174z m-209.252173 57.878261c-15.582609 4.452174-37.843478 2.226087-44.52174-13.356522-2.226087-8.904348 13.356522-11.130435 28.939131-15.582609 11.130435-2.226087 17.808696-8.904348 17.808696-11.130434-2.226087-4.452174-20.034783 4.452174-35.617392-2.226087-15.582609-6.678261-13.356522-20.034783-4.452174-22.26087 8.904348-4.452174 24.486957 0 57.878261-4.452174 17.808696-2.226087 28.93913 2.226087 31.165218 13.356522 4.452174 24.486957-28.93913 51.2-51.2 55.652174z m131.33913-120.208696c-31.165217 0-55.652174-24.486957-55.652174-55.652174 0-6.678261 4.452174-11.130435 11.130435-11.130435s11.130435 4.452174 11.130435 11.130435c0 17.808696 15.582609 33.391304 33.391304 33.391305 20.034783 0 33.391304-15.582609 33.391304-33.391305 0-6.678261 4.452174-11.130435 11.130435-11.130435s11.130435 4.452174 11.130435 11.130435c0 31.165217-24.486957 55.652174-55.652174 55.652174z m-55.652174-57.878261v2.226087-2.226087zM968.347826 376.475826v-422.956522c0-15.582609-11.130435-26.713043-26.713043-26.713043H80.13913c-15.582609 0-28.93913 11.130435-28.93913 26.713043v422.956522h291.617391c6.678261-35.617391 22.26087-71.234783 51.2-97.947826 31.165217-31.165217 73.46087-46.747826 117.982609-46.747826s84.591304 17.808696 117.982609 46.747826c26.713043 26.713043 44.521739 60.104348 51.2 97.947826h287.165217zM658.921739 425.449739c-13.356522 0-22.26087-11.130435-22.260869-24.486956 0-66.782609-55.652174-122.434783-122.434783-122.434783s-122.434783 55.652174-122.434783 122.434783c0 13.356522-11.130435 24.486957-22.260869 24.486956H93.495652l146.921739 133.565218h545.391305l144.695652-133.565218H658.921739z m351.721739-2.226087L814.747826 603.536696c-4.452174 6.678261-13.356522 8.904348-22.260869 8.904347H231.513043c-8.904348 0-17.808696-4.452174-22.260869-8.904347L11.130435 423.223652c-6.678261-6.678261-11.130435-17.808696-11.130435-26.713043v-440.765218c0-44.521739 35.617391-80.13913 80.13913-80.13913h861.495653c44.521739 0 80.13913 35.617391 80.13913 80.13913V396.510609c2.226087 8.904348-4.452174 20.034783-11.130435 26.713043zM589.913043 127.154087c2.226087-11.130435 11.130435-15.582609 31.165218-13.356522 33.391304 6.678261 48.973913 2.226087 57.878261 4.452174 8.904348 4.452174 11.130435 17.808696-4.452174 22.26087-15.582609 6.678261-33.391304-2.226087-35.617391 2.226087-2.226087 2.226087 4.452174 8.904348 17.808695 11.130434 15.582609 4.452174 31.165217 4.452174 28.939131 15.582609-4.452174 15.582609-26.713043 17.808696-44.52174 13.356522-22.26087-2.226087-55.652174-28.93913-51.2-55.652174z m-209.252173 57.878261c-15.582609 4.452174-37.843478 2.226087-44.52174-13.356522-2.226087-8.904348 13.356522-11.130435 28.939131-15.582609 11.130435-2.226087 17.808696-8.904348 17.808696-11.130434-2.226087-4.452174-20.034783 4.452174-35.617392-2.226087-15.582609-6.678261-13.356522-20.034783-4.452174-22.26087 8.904348-4.452174 24.486957 0 57.878261-4.452174 17.808696-2.226087 28.93913 2.226087 31.165218 13.356522 4.452174 24.486957-28.93913 51.2-51.2 55.652174z m131.33913-120.208696c-31.165217 0-55.652174-24.486957-55.652174-55.652174 0-6.678261 4.452174-11.130435 11.130435-11.130435s11.130435 4.452174 11.130435 11.130435c0 17.808696 15.582609 33.391304 33.391304 33.391305 20.034783 0 33.391304-15.582609 33.391304-33.391305 0-6.678261 4.452174-11.130435 11.130435-11.130435s11.130435 4.452174 11.130435 11.130435c0 31.165217-24.486957 55.652174-55.652174 55.652174z m-55.652174-57.878261v2.226087-2.226087zM727.930435 702.330435c-4.452174 4.452174-6.678261 11.130435-6.678261 15.582608 0 6.678261 2.226087 13.356522 6.678261 17.808696l84.591304 86.817391c8.904348 8.904348 24.486957 8.904348 33.391304 0 8.904348-8.904348 8.904348-24.486957 0-33.391304l-84.591304-86.817391c-4.452174-4.452174-8.904348-6.678261-15.582609-6.678261-6.678261 0-13.356522 2.226087-17.808695 6.678261M496.417391 733.4956520000001c-4.452174 4.452174-6.678261 11.130435-6.678261 17.808696l-2.226087 120.208695c0 13.356522 11.130435 24.486957 22.26087 24.486957 13.356522 0 24.486957-8.904348 24.486957-22.26087l2.226087-120.208695c0-8.904348-4.452174-17.808696-13.356522-22.26087-8.904348-4.452174-17.808696-2.226087-26.713044 2.226087m-244.869565-35.617391l-89.043478 82.365217c-8.904348 8.904348-8.904348 24.486957 0 33.391305 8.904348 8.904348 24.486957 8.904348 33.391304 0l89.043478-82.365218c8.904348-8.904348 8.904348-24.486957 0-33.391304-8.904348-8.904348-24.486957-8.904348-33.391304 0"  horiz-adv-x="1024" />

    
    <glyph glyph-name="Dollar" unicode="&#61718;" d="M512 832C264.6 832 64 631.4 64 384s200.6-448 448-448 448 200.6 448 448S759.4 832 512 832z m0-820c-205.4 0-372 166.6-372 372s166.6 372 372 372 372-166.6 372-372-166.6-372-372-372zM559.7 407.2l-25.4 5.9V547.4c38-5.2 61.5-29 65.5-58.2 0.5-4 3.9-6.9 7.9-6.9h44.9c4.7 0 8.4 4.1 8 8.8-6.1 62.3-57.4 102.3-125.9 109.2V633c0 4.4-3.6 8-8 8h-28.1c-4.4 0-8-3.6-8-8v-33c-70.8-6.9-126.2-46-126.2-119 0-67.6 49.8-100.2 102.1-112.7l24.7-6.3v-142.7c-44.2 5.9-69 29.5-74.1 61.3-0.6 3.8-4 6.6-7.9 6.6H363c-4.7 0-8.4-4-8-8.7 4.5-55 46.2-105.6 135.2-112.1V135c0-4.4 3.6-8 8-8h28.4c4.4 0 8 3.6 8 8.1l-0.2 31.7c78.3 6.9 134.3 48.8 134.3 124-0.1 69.4-44.2 100.4-109 116.4z m-68.6 16.2c-5.6 1.6-10.3 3.1-15 5-33.8 12.2-49.5 31.9-49.5 57.3 0 36.3 27.5 57 64.5 61.7v-124zM534.3 219V352.70000000000005c3.1-0.9 5.9-1.6 8.8-2.2 47.3-14.4 63.2-34.4 63.2-65.1 0-39.1-29.4-62.6-72-66.4z"  horiz-adv-x="1024" />

    
    <glyph glyph-name="frown" unicode="&#61458;" d="M336 475m-48 0a48 48 0 1 1 96 0 48 48 0 1 1-96 0ZM688 475m-48 0a48 48 0 1 1 96 0 48 48 0 1 1-96 0ZM512 832C264.6 832 64 631.4 64 384s200.6-448 448-448 448 200.6 448 448S759.4 832 512 832z m263-711c-34.2-34.2-74-61-118.3-79.8C611 21.799999999999955 562.3 12 512 12c-50.3 0-99 9.8-144.8 29.2-44.3 18.7-84.1 45.6-118.3 79.8-34.2 34.2-61 74-79.8 118.3C149.8 285 140 333.70000000000005 140 384s9.8 99 29.2 144.8c18.7 44.3 45.6 84.1 79.8 118.3 34.2 34.2 74 61 118.3 79.8C413 746.2 461.7 756 512 756c50.3 0 99-9.8 144.8-29.2 44.3-18.7 84.1-45.6 118.3-79.8 34.2-34.2 61-74 79.8-118.3C874.2 483 884 434.3 884 384s-9.8-99-29.2-144.8c-18.7-44.3-45.6-84.1-79.8-118.2zM512 363c-85.5 0-155.6-67.3-160-151.6-0.2-4.6 3.4-8.4 8-8.4h48.1c4.2 0 7.8 3.2 8.1 7.4C420 259.9 461.5 299 512 299s92.1-39.1 95.8-88.6c0.3-4.2 3.9-7.4 8.1-7.4H664c4.6 0 8.2 3.8 8 8.4-4.4 84.3-74.5 151.6-160 151.6z"  horiz-adv-x="1024" />

    
    <glyph glyph-name="meh" unicode="&#61457;" d="M336 475m-48 0a48 48 0 1 1 96 0 48 48 0 1 1-96 0ZM688 475m-48 0a48 48 0 1 1 96 0 48 48 0 1 1-96 0ZM512 832C264.6 832 64 631.4 64 384s200.6-448 448-448 448 200.6 448 448S759.4 832 512 832z m263-711c-34.2-34.2-74-61-118.3-79.8C611 21.799999999999955 562.3 12 512 12c-50.3 0-99 9.8-144.8 29.2-44.3 18.7-84.1 45.6-118.3 79.8-34.2 34.2-61 74-79.8 118.3C149.8 285 140 333.70000000000005 140 384s9.8 99 29.2 144.8c18.7 44.3 45.6 84.1 79.8 118.3 34.2 34.2 74 61 118.3 79.8C413 746.2 461.7 756 512 756c50.3 0 99-9.8 144.8-29.2 44.3-18.7 84.1-45.6 118.3-79.8 34.2-34.2 61-74 79.8-118.3C874.2 483 884 434.3 884 384s-9.8-99-29.2-144.8c-18.7-44.3-45.6-84.1-79.8-118.2zM664 331H360c-4.4 0-8-3.6-8-8v-48c0-4.4 3.6-8 8-8h304c4.4 0 8 3.6 8 8v48c0 4.4-3.6 8-8 8z"  horiz-adv-x="1024" />

    
    <glyph glyph-name="question-circle" unicode="&#61446;" d="M512 832C264.6 832 64 631.4 64 384s200.6-448 448-448 448 200.6 448 448S759.4 832 512 832z m0-820c-205.4 0-372 166.6-372 372s166.6 372 372 372 372-166.6 372-372-166.6-372-372-372zM623.6 579.3C593.6 605.6 554 620 512 620s-81.6-14.5-111.6-40.7C369.2 552 352 515.3 352 476v-7.6c0-4.4 3.6-8 8-8h48c4.4 0 8 3.6 8 8V476c0 44.1 43.1 80 96 80s96-35.9 96-80c0-31.1-22-59.6-56.1-72.7-21.2-8.1-39.2-22.3-52.1-40.9-13.1-19-19.9-41.8-19.9-64.9V276c0-4.4 3.6-8 8-8h48c4.4 0 8 3.6 8 8v22.7c0 19.7 12.4 37.7 30.9 44.8 59 22.7 97.1 74.7 97.1 132.5 0.1 39.3-17.1 76-48.3 103.3zM512 164m-40 0a40 40 0 1 1 80 0 40 40 0 1 1-80 0Z"  horiz-adv-x="1024" />

    
    <glyph glyph-name="smile" unicode="&#61456;" d="M336 475m-48 0a48 48 0 1 1 96 0 48 48 0 1 1-96 0ZM688 475m-48 0a48 48 0 1 1 96 0 48 48 0 1 1-96 0ZM512 832C264.6 832 64 631.4 64 384s200.6-448 448-448 448 200.6 448 448S759.4 832 512 832z m263-711c-34.2-34.2-74-61-118.3-79.8C611 21.799999999999955 562.3 12 512 12c-50.3 0-99 9.8-144.8 29.2-44.3 18.7-84.1 45.6-118.3 79.8-34.2 34.2-61 74-79.8 118.3C149.8 285 140 333.70000000000005 140 384s9.8 99 29.2 144.8c18.7 44.3 45.6 84.1 79.8 118.3 34.2 34.2 74 61 118.3 79.8C413 746.2 461.7 756 512 756c50.3 0 99-9.8 144.8-29.2 44.3-18.7 84.1-45.6 118.3-79.8 34.2-34.2 61-74 79.8-118.3C874.2 483 884 434.3 884 384s-9.8-99-29.2-144.8c-18.7-44.3-45.6-84.1-79.8-118.2zM664 363h-48.1c-4.2 0-7.8-3.2-8.1-7.4C604 306.1 562.5 267 512 267s-92.1 39.1-95.8 88.6c-0.3 4.2-3.9 7.4-8.1 7.4H360c-4.6 0-8.2-3.8-8-8.4 4.4-84.3 74.5-151.6 160-151.6s155.6 67.3 160 151.6c0.2 4.6-3.4 8.4-8 8.4z"  horiz-adv-x="1024" />

    
    <glyph glyph-name="YUAN" unicode="&#61506;" d="M512 832C264.6 832 64 631.4 64 384s200.6-448 448-448 448 200.6 448 448S759.4 832 512 832z m0-820c-205.4 0-372 166.6-372 372s166.6 372 372 372 372-166.6 372-372-166.6-372-372-372zM671.6 597h-59.5c-3 0-5.8-1.7-7.1-4.4l-90.6-180H511l-90.6 180c-1.4 2.7-4.1 4.4-7.1 4.4h-60.7c-1.3 0-2.6-0.3-3.8-1-3.9-2.1-5.3-7-3.2-10.9L457 380.29999999999995h-61.4c-4.4 0-8-3.6-8-8v-29.9c0-4.4 3.6-8 8-8h81.7V293h-81.7c-4.4 0-8-3.6-8-8v-29.9c0-4.4 3.6-8 8-8h81.7V179c0-4.4 3.6-8 8-8h54.3c4.4 0 8 3.6 8 8v68.1h82c4.4 0 8 3.6 8 8V285c0 4.4-3.6 8-8 8h-82v41.5h82c4.4 0 8 3.6 8 8v29.9c0 4.4-3.6 8-8 8h-62l111.1 204.8c0.6 1.2 1 2.5 1 3.8-0.1 4.4-3.7 8-8.1 8z"  horiz-adv-x="1024" />

    
    <glyph glyph-name="logout" unicode="&#61504;" d="M868 164h-70.3c-4.8 0-9.3-2.1-12.3-5.8-7-8.5-14.5-16.7-22.4-24.5-32.6-32.5-70.5-58.1-112.7-75.9-43.6-18.4-90-27.8-137.9-27.8-47.9 0-94.3 9.4-137.9 27.8-42.2 17.8-80.1 43.4-112.7 75.9-32.6 32.5-58.1 70.4-76 112.5C167.3 289.79999999999995 158 336.1 158 384s9.4 94.2 27.8 137.8c17.8 42.1 43.4 80 76 112.5s70.5 58.1 112.7 75.9c43.6 18.4 90 27.8 137.9 27.8 47.9 0 94.3-9.3 137.9-27.8 42.2-17.8 80.1-43.4 112.7-75.9 7.9-7.9 15.3-16.1 22.4-24.5 3-3.7 7.6-5.8 12.3-5.8H868c6.3 0 10.2 7 6.7 12.3C798 735.5 663.8 814.4 511.3 814 271.7 813.4 79.6 618.9 82 379.6 84.4 144.10000000000002 276.2-46 512.4-46c152.1 0 285.7 78.8 362.3 197.7 3.4 5.3-0.4 12.3-6.7 12.3zM956.9 390.3L815 502.3c-5.3 4.2-13 0.4-13-6.3v-76H488c-4.4 0-8-3.6-8-8v-56c0-4.4 3.6-8 8-8h314v-76c0-6.7 7.8-10.5 13-6.3l141.9 112c4.1 3.2 4.1 9.4 0 12.6z"  horiz-adv-x="1024" />

    
    <glyph glyph-name="setting" unicode="&#61750;" d="M924.8 270.29999999999995l-65.5 56c3.1 19 4.7 38.4 4.7 57.8s-1.6 38.8-4.7 57.8l65.5 56c10.1 8.6 13.8 22.6 9.3 35.2l-0.9 2.6c-18.1 50.5-44.9 96.9-79.7 137.9l-1.8 2.1c-8.6 10.1-22.5 13.9-35.1 9.5l-81.3-28.9c-30 24.6-63.5 44-99.7 57.6l-15.7 85c-2.4 13.1-12.7 23.3-25.8 25.7l-2.7 0.5c-52.1 9.4-106.9 9.4-159 0l-2.7-0.5c-13.1-2.4-23.4-12.6-25.8-25.7l-15.8-85.4c-35.9-13.6-69.2-32.9-99-57.4l-81.9 29.1c-12.5 4.4-26.5 0.7-35.1-9.5l-1.8-2.1c-34.8-41.1-61.6-87.5-79.7-137.9l-0.9-2.6c-4.5-12.5-0.8-26.5 9.3-35.2l66.3-56.6c-3.1-18.8-4.6-38-4.6-57.1 0-19.2 1.5-38.4 4.6-57.1L99 270.5c-10.1-8.6-13.8-22.6-9.3-35.2l0.9-2.6c18.1-50.4 44.9-96.9 79.7-137.9l1.8-2.1c8.6-10.1 22.5-13.9 35.1-9.5l81.9 29.1c29.8-24.5 63.1-43.9 99-57.4l15.8-85.4c2.4-13.1 12.7-23.3 25.8-25.7l2.7-0.5c26.1-4.7 52.8-7.1 79.5-7.1 26.7 0 53.5 2.4 79.5 7.1l2.7 0.5c13.1 2.4 23.4 12.6 25.8 25.7l15.7 85c36.2 13.6 69.7 32.9 99.7 57.6l81.3-28.9c12.5-4.4 26.5-0.7 35.1 9.5l1.8 2.1c34.8 41.1 61.6 87.5 79.7 137.9l0.9 2.6c4.5 12.3 0.8 26.3-9.3 35zM788.3 430.1c2.5-15.1 3.8-30.6 3.8-46.1s-1.3-31-3.8-46.1l-6.6-40.1 74.7-63.9c-11.3-26.1-25.6-50.7-42.6-73.6L721 193.20000000000005l-31.4-25.8c-23.9-19.6-50.5-35-79.3-45.8l-38.1-14.3-17.9-97c-28.1-3.2-56.8-3.2-85 0l-17.9 97.2-37.8 14.5c-28.5 10.8-55 26.2-78.7 45.7l-31.4 25.9-93.4-33.2c-17 22.9-31.2 47.6-42.6 73.6l75.5 64.5-6.5 40c-2.4 14.9-3.7 30.3-3.7 45.5 0 15.3 1.2 30.6 3.7 45.5l6.5 40-75.5 64.5c11.3 26.1 25.6 50.7 42.6 73.6l93.4-33.2 31.4 25.9c23.7 19.5 50.2 34.9 78.7 45.7l37.9 14.3 17.9 97.2c28.1 3.2 56.8 3.2 85 0l17.9-97 38.1-14.3c28.7-10.8 55.4-26.2 79.3-45.8l31.4-25.8 92.8 32.9c17-22.9 31.2-47.6 42.6-73.6L781.8 470l6.5-39.9zM512 570c-97.2 0-176-78.8-176-176s78.8-176 176-176 176 78.8 176 176-78.8 176-176 176z m79.2-255.2C570 293.70000000000005 541.9 282 512 282c-29.9 0-58 11.7-79.2 32.8C411.7 336 400 364.1 400 394c0 29.9 11.7 58 32.8 79.2C454 494.4 482.1 506 512 506c29.9 0 58-11.6 79.2-32.8C612.3 452 624 423.9 624 394c0-29.9-11.7-58-32.8-79.2z"  horiz-adv-x="1024" />

    
    <glyph glyph-name="eye" unicode="&#61497;" d="M942.2 409.8C847.4 609.5 704.1 710 512 710c-192.2 0-335.4-100.5-430.2-300.3-7.7-16.2-7.7-35.2 0-51.5C176.6 158.5 319.9 58 512 58c192.2 0 335.4 100.5 430.2 300.3 7.7 16.2 7.7 35 0 51.5zM512 130c-161.3 0-279.4 81.8-362.7 254C232.6 556.2 350.7 638 512 638c161.3 0 279.4-81.8 362.7-254C791.5 211.79999999999995 673.4 130 512 130zM508 560c-97.2 0-176-78.8-176-176s78.8-176 176-176 176 78.8 176 176-78.8 176-176 176z m0-288c-61.9 0-112 50.1-112 112s50.1 112 112 112 112-50.1 112-112-50.1-112-112-112z"  horiz-adv-x="1024" />

    
    <glyph glyph-name="save" unicode="&#61570;" d="M893.3 602.7L730.7 765.3c-7.5 7.5-16.7 13-26.7 16V784H144c-17.7 0-32-14.3-32-32v-736c0-17.7 14.3-32 32-32h736c17.7 0 32 14.3 32 32V557.5c0 17-6.7 33.2-18.7 45.2zM384 712h256v-104H384V712z m456-656H184V712h136v-136c0-17.7 14.3-32 32-32h320c17.7 0 32 14.3 32 32V690.2l136-136V56zM512 454c-79.5 0-144-64.5-144-144s64.5-144 144-144 144 64.5 144 144-64.5 144-144 144z m0-224c-44.2 0-80 35.8-80 80s35.8 80 80 80 80-35.8 80-80-35.8-80-80-80z"  horiz-adv-x="1024" />

    
    <glyph glyph-name="user" unicode="&#61524;" d="M858.5 132.39999999999998c-18.9 44.8-46.1 85-80.6 119.5-34.5 34.5-74.7 61.6-119.5 80.6-0.4 0.2-0.8 0.3-1.2 0.5C719.5 378 760 451.3 760 534c0 137-111 248-248 248S264 671 264 534c0-82.7 40.5-156 102.8-201.1-0.4-0.2-0.8-0.3-1.2-0.5-44.8-18.9-85-46-119.5-80.6-34.5-34.5-61.6-74.7-80.6-119.5C146.9 88.5 137 42 136-5.7999999999999545c-0.1-4.5 3.5-8.2 8-8.2h60c4.4 0 7.9 3.5 8 7.8 2 77.2 33 149.5 87.8 204.3 56.7 56.7 132 87.9 212.2 87.9s155.5-31.2 212.2-87.9C779 143.29999999999995 810 71 812-6.2000000000000455c0.1-4.4 3.6-7.8 8-7.8h60c4.5 0 8.1 3.7 8 8.2-1 47.8-10.9 94.3-29.5 138.2zM512 362c-45.9 0-89.1 17.9-121.6 50.4S340 488.1 340 534c0 45.9 17.9 89.1 50.4 121.6S466.1 706 512 706s89.1-17.9 121.6-50.4S684 579.9 684 534c0-45.9-17.9-89.1-50.4-121.6S557.9 362 512 362z"  horiz-adv-x="1024" />

    
    <glyph glyph-name="team" unicode="&#61525;" d="M824.2 196.10000000000002c-25.4 25.4-54.7 45.7-86.4 60.4C783.1 293.20000000000005 812 349.20000000000005 812 412c0 110.8-92.4 201.7-203.2 200-109.1-1.7-197-90.6-197-200 0-62.8 29-118.8 74.2-155.5-31.7-14.7-60.9-34.9-86.4-60.4C345 141.39999999999998 314 69.20000000000005 312-7.7999999999999545c-0.1-4.5 3.5-8.2 8-8.2h56c4.3 0 7.9 3.4 8 7.7 1.9 58 25.4 112.3 66.7 153.5C493.8 188.29999999999995 551.1 212 612 212c60.9 0 118.2-23.7 161.3-66.8C814.5 104 838 49.700000000000045 840-8.299999999999955c0.1-4.3 3.7-7.7 8-7.7h56c4.5 0 8.1 3.7 8 8.2-2 77-33 149.2-87.8 203.9zM612 284c-34.2 0-66.4 13.3-90.5 37.5-24.5 24.5-37.9 57.1-37.5 91.8 0.3 32.8 13.4 64.5 36.3 88 24 24.6 56.1 38.3 90.4 38.7 33.9 0.3 66.8-12.9 91-36.6 24.8-24.3 38.4-56.8 38.4-91.4 0-34.2-13.3-66.3-37.5-90.5-24.2-24.2-56.4-37.5-90.6-37.5zM361.5 385.6c-0.9 8.7-1.4 17.5-1.4 26.4 0 15.9 1.5 31.4 4.3 46.5 0.7 3.6-1.2 7.3-4.5 8.8-13.6 6.1-26.1 14.5-36.9 25.1-25.8 25.2-39.7 59.3-38.7 95.4 0.9 32.1 13.8 62.6 36.3 85.6 24.7 25.3 57.9 39.1 93.2 38.7 31.9-0.3 62.7-12.6 86-34.4 7.9-7.4 14.7-15.6 20.4-24.4 2-3.1 5.9-4.4 9.3-3.2 17.6 6.1 36.2 10.4 55.3 12.4 5.6 0.6 8.8 6.6 6.3 11.6-32.5 64.3-98.9 108.7-175.7 109.9-110.9 1.7-203.3-89.2-203.3-199.9 0-62.8 28.9-118.8 74.2-155.5-31.8-14.7-61.1-35-86.5-60.4-54.8-54.7-85.8-126.9-87.8-204-0.1-4.5 3.5-8.2 8-8.2h56.1c4.3 0 7.9 3.4 8 7.7 1.9 58 25.4 112.3 66.7 153.5 29.4 29.4 65.4 49.8 104.7 59.7 3.9 1 6.5 4.7 6 8.7z"  horiz-adv-x="1024" />

    
    <glyph glyph-name="areachart" unicode="&#61701;" d="M888 104H200V728c0 4.4-3.6 8-8 8h-56c-4.4 0-8-3.6-8-8v-688c0-4.4 3.6-8 8-8h752c4.4 0 8 3.6 8 8v56c0 4.4-3.6 8-8 8zM272 168h536c4.4 0 8 3.6 8 8V612c0 7.2-8.7 10.7-13.7 5.7L592 407.4l-125.4 124c-3.1 3.1-8.2 3.1-11.3 0l-189-189.6c-1.5-1.5-2.3-3.5-2.3-5.6V176c0-4.4 3.6-8 8-8z"  horiz-adv-x="1024" />

    
    <glyph glyph-name="linechart" unicode="&#61700;" d="M888 104H200V728c0 4.4-3.6 8-8 8h-56c-4.4 0-8-3.6-8-8v-688c0-4.4 3.6-8 8-8h752c4.4 0 8 3.6 8 8v56c0 4.4-3.6 8-8 8zM305.8 258.29999999999995c3.1-3.1 8.1-3.1 11.3 0l138.3 137.6L583 267.5c3.1-3.1 8.2-3.1 11.3 0l275.4 275.3c3.1 3.1 3.1 8.2 0 11.3l-39.6 39.6c-3.1 3.1-8.2 3.1-11.3 0l-230-229.9L461.4 492c-3.1 3.1-8.2 3.1-11.3 0L266.3 309.29999999999995c-3.1-3.1-3.1-8.2 0-11.3l39.5-39.7z"  horiz-adv-x="1024" />

    
    <glyph glyph-name="barchart" unicode="&#61699;" d="M888 104H200V728c0 4.4-3.6 8-8 8h-56c-4.4 0-8-3.6-8-8v-688c0-4.4 3.6-8 8-8h752c4.4 0 8 3.6 8 8v56c0 4.4-3.6 8-8 8zM288 184h56c4.4 0 8 3.6 8 8V336c0 4.4-3.6 8-8 8h-56c-4.4 0-8-3.6-8-8v-144c0-4.4 3.6-8 8-8zM440 184h56c4.4 0 8 3.6 8 8V512c0 4.4-3.6 8-8 8h-56c-4.4 0-8-3.6-8-8v-320c0-4.4 3.6-8 8-8zM592 184h56c4.4 0 8 3.6 8 8V434c0 4.4-3.6 8-8 8h-56c-4.4 0-8-3.6-8-8v-242c0-4.4 3.6-8 8-8zM744 184h56c4.4 0 8 3.6 8 8V592c0 4.4-3.6 8-8 8h-56c-4.4 0-8-3.6-8-8v-400c0-4.4 3.6-8 8-8z"  horiz-adv-x="1024" />

    
    <glyph glyph-name="redenvelope" unicode="&#61545;" d="M440.6 433.4c-1.4 2.8-4.3 4.6-7.5 4.6h-48.8c-1.3 0-2.6-0.4-3.9-1-4.1-2.2-5.6-7.3-3.4-11.4l87.4-161.1H419c-4.6 0-8.4-3.8-8.4-8.4V231c0-4.6 3.8-8.4 8.4-8.4h63V194h-63c-4.6 0-8.4-3.8-8.4-8.4v-25.1c0-4.6 3.8-8.4 8.4-8.4h63v-49.9c0-4.6 3.8-8.4 8.4-8.4h43.7c4.6 0 8.4 3.8 8.4 8.4v49.9h63.3c4.7 0 8.4 3.8 8.2 8.5v25c0 4.6-3.8 8.4-8.4 8.4h-63.3v28.6h63.3c4.6 0 8.4 3.8 8.4 8.4v25.1c0 4.6-3.8 8.4-8.4 8.4h-45.9l87.2 161c0.7 1.2 1 2.6 1 4 0 4.6-3.8 8.4-8.4 8.4h-47.8c-3.1 0-6-1.8-7.5-4.6l-71.9-141.9-71.7 142zM832 832H192c-17.7 0-32-14.3-32-32v-832c0-17.7 14.3-32 32-32h640c17.7 0 32 14.3 32 32V800c0 17.7-14.3 32-32 32z m-40-824H232V702.9l260.3-204.1c11.6-9.1 27.9-9.1 39.5 0L792 702.9V8z m0 751.3h-31.7L512 564.7 263.7 759.3H232v0.7h560v-0.7z"  horiz-adv-x="1024" />

    
    <glyph glyph-name="file-excel" unicode="&#61785;" d="M854.6 607.4L639.4 822.6c-6 6-14.1 9.4-22.6 9.4H192c-17.7 0-32-14.3-32-32v-832c0-17.7 14.3-32 32-32h640c17.7 0 32 14.3 32 32V584.7c0 8.5-3.4 16.7-9.4 22.7zM790.2 570H602V758.2L790.2 570z m1.8-562H232V760h302v-216c0-23.2 18.8-42 42-42h216v-494zM514.1 315.9l-61.8 102.4c-2.2 3.6-6.1 5.8-10.3 5.8h-38.4c-2.3 0-4.5-0.6-6.4-1.9-5.6-3.5-7.3-10.9-3.7-16.6l82.3-130.4-83.4-132.8c-1.2-1.9-1.8-4.1-1.8-6.4 0-6.6 5.4-12 12-12h34.5c4.2 0 8 2.2 10.2 5.7L510 231.20000000000005l62.3-101.4c2.2-3.6 6.1-5.7 10.2-5.7H620c2.3 0 4.5 0.7 6.5 1.9 5.6 3.6 7.2 11 3.6 16.6l-84 130.4 85.3 132.5c1.2 1.9 1.9 4.2 1.9 6.5 0 6.6-5.4 12-12 12h-35.7c-4.2 0-8.1-2.2-10.3-5.8l-61.2-102.3z"  horiz-adv-x="1024" />

    
    <glyph glyph-name="file-pdf" unicode="&#61781;" d="M531.3 321.6l0.3 1.4c5.8 23.9 13.1 53.7 7.4 80.7-3.8 21.3-19.5 29.6-32.9 30.2-15.8 0.7-29.9-8.3-33.4-21.4-6.6-24-0.7-56.8 10.1-98.6-13.6-32.4-35.3-79.5-51.2-107.5-29.6-15.3-69.3-38.9-75.2-68.7-1.2-5.5 0.2-12.5 3.5-18.8 3.7-7 9.6-12.4 16.5-15 3-1.1 6.6-2 10.8-2 17.6 0 46.1 14.2 84.1 79.4 5.8 1.9 11.8 3.9 17.6 5.9 27.2 9.2 55.4 18.8 80.9 23.1 28.2-15.1 60.3-24.8 82.1-24.8 21.6 0 30.1 12.8 33.3 20.5 5.6 13.5 2.9 30.5-6.2 39.6-13.2 13-45.3 16.4-95.3 10.2-24.6 15-40.7 35.4-52.4 65.8zM421.6 169.70000000000005c-13.9-20.2-24.4-30.3-30.1-34.7 6.7 12.3 19.8 25.3 30.1 34.7z m87.6 235.5c5.2-8.9 4.5-35.8 0.5-49.4-4.9 19.9-5.6 48.1-2.7 51.4 0.8-0.1 1.5-0.7 2.2-2z m-1.6-120.5c10.7-18.5 24.2-34.4 39.1-46.2-21.6-4.9-41.3-13-58.9-20.2-4.2-1.7-8.3-3.4-12.3-5 13.3 24.1 24.4 51.4 32.1 71.4z m155.6-65.5c0.1-0.2 0.2-0.5-0.4-0.9h-0.2l-0.2-0.3c-0.8-0.5-9-5.3-44.3 8.6 40.6 1.9 45-7.3 45.1-7.4zM854.6 607.4L639.4 822.6c-6 6-14.1 9.4-22.6 9.4H192c-17.7 0-32-14.3-32-32v-832c0-17.7 14.3-32 32-32h640c17.7 0 32 14.3 32 32V584.7c0 8.5-3.4 16.7-9.4 22.7zM790.2 570H602V758.2L790.2 570z m1.8-562H232V760h302v-216c0-23.2 18.8-42 42-42h216v-494z"  horiz-adv-x="1024" />

    
    <glyph glyph-name="file-image" unicode="&#61768;" d="M553.1 386.9l-77.8-99.2-41.1 52.4c-3.2 4.1-9.4 4.1-12.6 0l-99.8-127.2c-4.1-5.2-0.4-12.9 6.3-12.9H696c6.7 0 10.4 7.7 6.3 12.9l-136.5 174c-3.3 4.1-9.5 4.1-12.7 0zM400 454m-40 0a40 40 0 1 1 80 0 40 40 0 1 1-80 0ZM854.6 607.4L639.4 822.6c-6 6-14.1 9.4-22.6 9.4H192c-17.7 0-32-14.3-32-32v-832c0-17.7 14.3-32 32-32h640c17.7 0 32 14.3 32 32V584.7c0 8.5-3.4 16.7-9.4 22.7zM790.2 570H602V758.2L790.2 570z m1.8-562H232V760h302v-216c0-23.2 18.8-42 42-42h216v-494z"  horiz-adv-x="1024" />

    
    <glyph glyph-name="file-markdown" unicode="&#61793;" d="M854.6 607.4L639.4 822.6c-6 6-14.1 9.4-22.6 9.4H192c-17.7 0-32-14.3-32-32v-832c0-17.7 14.3-32 32-32h640c17.7 0 32 14.3 32 32V584.7c0 8.5-3.4 16.7-9.4 22.7zM790.2 570H602V758.2L790.2 570z m1.8-562H232V760h302v-216c0-23.2 18.8-42 42-42h216v-494zM429 414.8c-1.9 4.4-6.2 7.2-11 7.2h-35c-6.6 0-12-5.4-12-12v-272c0-6.6 5.4-12 12-12h27.1c6.6 0 12 5.4 12 12V313.9l66.8-150.2c1.9-4.3 6.2-7.1 11-7.1H524c4.7 0 9 2.8 11 7.1l66.8 150.6V138c0-6.6 5.4-12 12-12H641c6.6 0 12 5.4 12 12V410c0 6.6-5.4 12-12 12h-34.7c-4.8 0-9.1-2.8-11-7.2l-83.1-191-83.2 191z"  horiz-adv-x="1024" />

    
    <glyph glyph-name="file-unknown" unicode="&#61797;" d="M854.6 607.3L639.4 822.6c-6 6-14.2 9.4-22.7 9.4H192c-17.7 0-32-14.3-32-32v-832c0-17.7 14.3-32 32-32h640c17.7 0 32 14.3 32 32V584.7c0 8.5-3.4 16.6-9.4 22.6zM790.2 570H602V758.2L790.2 570z m1.8-562H232V760h302v-216c0-23.2 18.8-42 42-42h216v-494zM402 347c0-5.4 4.4-9.5 9.8-9.5h32.4c5.4 0 9.8 4.2 9.8 9.4 0 28.2 25.8 51.6 58 51.6s58-23.4 58-51.5c0-25.3-21-47.2-49.3-50.9-19.3-2.8-34.5-20.3-34.7-40.1v-32c0-5.5 4.5-10 10-10h32c5.5 0 10 4.5 10 10v12.2c0 6 4 11.5 9.7 13.3 44.6 14.4 75 54 74.3 98.9-0.8 55.5-49.2 100.8-108.5 101.6-61.4 0.7-111.5-45.6-111.5-103zM512 152m-32 0a32 32 0 1 1 64 0 32 32 0 1 1-64 0Z"  horiz-adv-x="1024" />

    
    <glyph glyph-name="file-ppt" unicode="&#61783;" d="M424 420c-4.4 0-8-3.6-8-8v-276c0-4.4 3.6-8 8-8h32.5c4.4 0 8 3.6 8 8v95.5h63.3c59.4 0 96.2 38.9 96.2 94.1 0 54.5-36.3 94.3-96 94.3H424z m150.6-94.3c0-43.4-26.5-54.3-71.2-54.3h-38.9V379.79999999999995h56.2c33.8 0 53.9-19.7 53.9-54.1zM854.6 607.4L639.4 822.6c-6 6-14.1 9.4-22.6 9.4H192c-17.7 0-32-14.3-32-32v-832c0-17.7 14.3-32 32-32h640c17.7 0 32 14.3 32 32V584.7c0 8.5-3.4 16.7-9.4 22.7zM790.2 570H602V758.2L790.2 570z m1.8-562H232V760h302v-216c0-23.2 18.8-42 42-42h216v-494z"  horiz-adv-x="1024" />

    
    <glyph glyph-name="file-word" unicode="&#61777;" d="M854.6 607.4L639.4 822.6c-6 6-14.1 9.4-22.6 9.4H192c-17.7 0-32-14.3-32-32v-832c0-17.7 14.3-32 32-32h640c17.7 0 32 14.3 32 32V584.7c0 8.5-3.4 16.7-9.4 22.7zM790.2 570H602V758.2L790.2 570z m1.8-562H232V760h302v-216c0-23.2 18.8-42 42-42h216v-494zM528.1 424h-32.2c-5.5 0-10.3-3.7-11.6-9.1L434.6 216l-46.1 198.7c-1.3 5.4-6.1 9.3-11.7 9.3h-35.4c-1.1 0-2.1-0.1-3.1-0.4-6.4-1.7-10.2-8.3-8.5-14.7l74.2-276c1.4-5.2 6.2-8.9 11.6-8.9h32c5.4 0 10.2 3.6 11.6 8.9l52.8 197 52.8-197c1.4-5.2 6.2-8.9 11.6-8.9h31.8c5.4 0 10.2 3.6 11.6 8.9l74.4 276c0.3 1 0.4 2.1 0.4 3.1 0 6.6-5.4 12-12 12H647c-5.6 0-10.4-3.9-11.7-9.3l-45.8-199.1-49.8 199.3c-1.3 5.4-6.1 9.1-11.6 9.1z"  horiz-adv-x="1024" />

    
    <glyph glyph-name="file-zip" unicode="&#61778;" d="M296 504h64v-64h-64zM296 314v-160h128V314h-64v62h-64v-62z m80-48v-64h-32v64h32zM360 568h64v-64h-64zM296 632h64v-64h-64zM360 440h64v-64h-64zM360 696h64v-64h-64zM854.6 607.4L639.4 822.6c-6 6-14.1 9.4-22.6 9.4H192c-17.7 0-32-14.3-32-32v-832c0-17.7 14.3-32 32-32h640c17.7 0 32 14.3 32 32V584.7c0 8.5-3.4 16.7-9.4 22.7zM790.2 570H602V758.2L790.2 570z m1.8-562H232V760h64v-64h64v64h174v-216c0-23.2 18.8-42 42-42h216v-494z"  horiz-adv-x="1024" />

    
    <glyph glyph-name="file-text" unicode="&#61795;" d="M854.6 607.4L639.4 822.6c-6 6-14.1 9.4-22.6 9.4H192c-17.7 0-32-14.3-32-32v-832c0-17.7 14.3-32 32-32h640c17.7 0 32 14.3 32 32V584.7c0 8.5-3.4 16.7-9.4 22.7zM790.2 570H602V758.2L790.2 570z m1.8-562H232V760h302v-216c0-23.2 18.8-42 42-42h216v-494zM504 278H320c-4.4 0-8-3.6-8-8v-48c0-4.4 3.6-8 8-8h184c4.4 0 8 3.6 8 8v48c0 4.4-3.6 8-8 8zM312 406v-48c0-4.4 3.6-8 8-8h384c4.4 0 8 3.6 8 8v48c0 4.4-3.6 8-8 8H320c-4.4 0-8-3.6-8-8z"  horiz-adv-x="1024" />

    
    <glyph glyph-name="file-copy" unicode="&#61800;" d="M832 832H296c-4.4 0-8-3.6-8-8v-56c0-4.4 3.6-8 8-8h496v-688c0-4.4 3.6-8 8-8h56c4.4 0 8 3.6 8 8V800c0 17.7-14.3 32-32 32zM704 704H192c-17.7 0-32-14.3-32-32v-530.7c0-8.5 3.4-16.6 9.4-22.6l173.3-173.3c2.2-2.2 4.7-4 7.4-5.5v-1.9h4.2c3.5-1.3 7.2-2 11-2H704c17.7 0 32 14.3 32 32V672c0 17.7-14.3 32-32 32zM350 39.799999999999955L263.9 126H350v-86.2zM664 8H414V150c0 22.1-17.9 40-40 40H232V632h432v-624z"  horiz-adv-x="1024" />

    
    <glyph glyph-name="audit" unicode="&#61593;" d="M296 646c-4.4 0-8-3.6-8-8v-48c0-4.4 3.6-8 8-8h384c4.4 0 8 3.6 8 8v48c0 4.4-3.6 8-8 8H296zM480 502H296c-4.4 0-8-3.6-8-8v-48c0-4.4 3.6-8 8-8h184c4.4 0 8 3.6 8 8v48c0 4.4-3.6 8-8 8zM432 44H208V748h560v-320c0-4.4 3.6-8 8-8h56c4.4 0 8 3.6 8 8V788c0 17.7-14.3 32-32 32H168c-17.7 0-32-14.3-32-32v-784c0-17.7 14.3-32 32-32h264c4.4 0 8 3.6 8 8v56c0 4.4-3.6 8-8 8zM872 132H728v36.6c46.3 13.8 80 56.6 80 107.4 0 61.9-50.1 112-112 112s-112-50.1-112-112c0-50.7 33.7-93.6 80-107.4V132H520c-8.8 0-16-7.2-16-16v-152c0-8.8 7.2-16 16-16h352c8.8 0 16 7.2 16 16V116c0 8.8-7.2 16-16 16zM646 276c0 27.6 22.4 50 50 50s50-22.4 50-50-22.4-50-50-50-50 22.4-50 50z m180-266H566v60h260v-60z"  horiz-adv-x="1024" />

    
    <glyph glyph-name="diff" unicode="&#61798;" d="M476 496.9c0 3.9-3.1 7.1-7 7.1h-42c-3.8 0-7-3.2-7-7.1V412h-84.5c-4.1 0-7.5-3.1-7.5-7v-42c0-3.8 3.4-7 7.5-7H420v-84.9c0-3.9 3.2-7.1 7-7.1h42c3.9 0 7 3.2 7 7.1V356h84.5c4.1 0 7.5 3.2 7.5 7v42c0 3.9-3.4 7-7.5 7H476v84.9zM560.5 192h-225c-4.1 0-7.5-3.2-7.5-7v-42c0-3.8 3.4-7 7.5-7h225c4.1 0 7.5 3.2 7.5 7v42c0 3.8-3.4 7-7.5 7zM553.4 694.6c-6 6-14.1 9.4-22.6 9.4H192c-17.7 0-32-14.3-32-32v-704c0-17.7 14.3-32 32-32h512c17.7 0 32 14.3 32 32V498.7c0 8.5-3.4 16.6-9.4 22.6L553.4 694.6zM664 8H232V632h282.2L664 482.2V8zM854.2 589.4L611.3 823.1c-6 5.7-13.9 8.9-22.2 8.9H296c-4.4 0-8-3.6-8-8v-56c0-4.4 3.6-8 8-8h277l219-210.6V72c0-4.4 3.6-8 8-8h56c4.4 0 8 3.6 8 8V566.4c0 8.7-3.5 17-9.8 23z"  horiz-adv-x="1024" />

    
    <glyph glyph-name="propertysafety" unicode="&#61507;" d="M866.9 726.1L527.1 841.9C523 843.3 517.5 844 512 844s-11-0.7-15.1-2.1L157.1 726.1c-8.3-2.8-15.1-12.4-15.1-21.2v-482.4c0-8.8 5.7-20.4 12.6-25.9L499.3-72c3.5-2.7 8-4.1 12.6-4.1s9.2 1.4 12.6 4.1l344.7 268.6c6.9 5.4 12.6 17 12.6 25.9V704.9c0.2 8.8-6.6 18.3-14.9 21.2zM810 241.70000000000005L512 9.5 214 241.70000000000005V669.3l298 101.6 298-101.6v-427.6zM430.5 578h-46c-1.7 0-3.3-0.4-4.8-1.2-4.8-2.6-6.6-8.7-4-13.6l88-161.1h-45.2c-5.5 0-10-4.5-10-10v-21.3c0-5.5 4.5-10 10-10h63.1v-29.7h-63.1c-5.5 0-10-4.5-10-10v-21.3c0-5.5 4.5-10 10-10h63.1V238c0-5.5 4.5-10 10-10h41.3c5.5 0 10 4.5 10 10v51.8h63.4c5.5 0 10 4.5 10 10v21.3c0 5.5-4.5 10-10 10h-63.4v29.7h63.4c5.5 0 10 4.5 10 10v21.3c0 5.5-4.5 10-10 10h-45.7l87.7 161.1c0.8 1.5 1.2 3.1 1.2 4.8 0 5.5-4.5 10-10 10h-45c-3.8 0-7.2-2.1-8.9-5.5l-73.2-144.3-72.9 144.3c-1.7 3.4-5.2 5.5-9 5.5z"  horiz-adv-x="1024" />

    
    <glyph glyph-name="insurance" unicode="&#61509;" d="M441.6 589.2L403 607.4c-3.3 1.6-7.3-0.2-8.4-3.7-17.5-58.5-45.2-110.1-82.2-153.6-1.3-1.6-1.8-3.7-1.2-5.6l13.2-43.5c1.3-4.4 7-5.7 10.2-2.4 7.7 8.1 15.4 16.9 23.1 26V240c0-4.4 3.6-8 8-8H403c4.4 0 8 3.6 8 8V502.9c13.8 25.1 25.1 51.7 33.6 79 1 2.9-0.3 6-3 7.3zM468.4 580v-127.2c0-4.4 3.6-8 8-8h65.9v-18.6h-94.9c-4.4 0-8-3.6-8-8v-35.6c0-4.4 3.6-8 8-8h55.1c-19.1-30.8-42.4-55.7-71-76-2.6-1.8-3.3-5.4-1.6-8.1l22.8-36.5c1.9-3.1 6.2-3.8 8.9-1.4 31.6 26.8 58.7 62.9 80.6 107.6v-120c0-4.4 3.6-8 8-8h36.2c4.4 0 8 3.6 8 8V360c21.3-41.7 47.5-77.5 78.1-106.9 2.6-2.5 6.8-2.1 8.9 0.7l26.3 35.3c2 2.7 1.4 6.5-1.2 8.4-30.5 22.6-54.2 47.8-72.3 76.9h59c4.4 0 8 3.6 8 8V418c0 4.4-3.6 8-8 8h-98.8v18.6h66.7c4.4 0 8 3.6 8 8V580c0 4.4-3.6 8-8 8H476.4c-4.4 0-8-3.6-8-8z m51.5-42.8h97.9v-41.6h-97.9v41.6zM866.9 726.1L527.1 841.9C523 843.3 517.5 844 512 844s-11-0.7-15.1-2.1L157.1 726.1c-8.3-2.8-15.1-12.4-15.1-21.2v-482.4c0-8.8 5.7-20.4 12.6-25.9L499.3-72c3.5-2.7 8-4.1 12.6-4.1s9.2 1.4 12.6 4.1l344.7 268.6c6.9 5.4 12.6 17 12.6 25.9V704.9c0.2 8.8-6.6 18.3-14.9 21.2zM810 241.70000000000005L512 9.5 214 241.70000000000005V669.3l298 101.6 298-101.6v-427.6z"  horiz-adv-x="1024" />

    
    <glyph glyph-name="experiment" unicode="&#61585;" d="M552 424m-40 0a40 40 0 1 1 80 0 40 40 0 1 1-80 0ZM879 71.10000000000002L696.3 544V718H768v68H256v-68h71.7v-174L145 71.10000000000002c-2.8-7.4-4.3-15.2-4.3-23.1 0-35.3 28.7-64 64-64h614.6c7.9 0 15.7 1.5 23.1 4.3 33 12.7 49.4 49.8 36.6 82.8zM395.7 531.3V716h232.6v-184.7L719.2 296c-20.7 5.3-42.1 8-63.9 8-61.2 0-119.2-21.5-165.3-60-33.9-28.2-76.3-43.9-121.3-43.9-32.7 0-64.1 8.3-91.8 23.7l118.8 307.5zM210.5 52l41.7 107.8c35.7-18.1 75.4-27.8 116.6-27.8 61.2 0 119.2 21.5 165.3 60 33.9 28.2 76.3 43.9 121.3 43.9 35 0 68.4-9.5 97.6-27.1L813.5 52h-603z"  horiz-adv-x="1024" />

    
    <glyph glyph-name="home" unicode="&#61554;" d="M946.5 391L560.1 777.2l-25.9 25.9c-12.3 12.2-32.1 12.2-44.4 0L77.5 391c-12.3-12.3-18.9-28.6-18.8-46 0.4-35.2 29.7-63.3 64.9-63.3h42.5V-44h691.8V281.70000000000005h43.4c17.1 0 33.2 6.7 45.3 18.8 12.1 12.1 18.7 28.2 18.7 45.3 0 17-6.7 33.1-18.8 45.2zM568 28H456V232h112v-204z m217.9 325.7V28H632V256c0 22.1-17.9 40-40 40H432c-22.1 0-40-17.9-40-40v-228H238.1V353.70000000000005h-96l370 369.7 23.1-23.1L882 353.70000000000005h-96.1z"  horiz-adv-x="1024" />

    
    <glyph glyph-name="bank" unicode="&#61557;" d="M894 434c30.9 0 43.8 39.7 18.7 58L530.8 769.8a31.81 31.81 0 0 1-37.6 0L111.3 492c-25.1-18.2-12.2-58 18.8-58H192v-374h-72c-4.4 0-8-3.6-8-8v-52c0-4.4 3.6-8 8-8h784c4.4 0 8 3.6 8 8v52c0 4.4-3.6 8-8 8h-72V434h62zM512 699.3l271.1-197.2H240.9L512 699.3zM264 434h117v-374H264V434z m189 0h117v-374H453V434z m307-374H642V434h118v-374z"  horiz-adv-x="1024" />

    
    <glyph glyph-name="like" unicode="&#61528;" d="M885.9 362.29999999999995c16.8 22.2 26.1 49.4 26.1 77.7 0 44.9-25.1 87.4-65.5 111.1a67.67 67.67 0 0 1-34.3 9.3H572.4l6 122.9c1.4 29.7-9.1 57.9-29.5 79.4-20.5 21.5-48.1 33.4-77.9 33.4-52 0-98-35-111.8-85.1l-85.9-311H144c-17.7 0-32-14.3-32-32v-364c0-17.7 14.3-32 32-32h601.3c9.2 0 18.2 1.8 26.5 5.4 47.6 20.3 78.3 66.8 78.3 118.4 0 12.6-1.8 25-5.4 37 16.8 22.2 26.1 49.4 26.1 77.7 0 12.6-1.8 25-5.4 37 16.8 22.2 26.1 49.4 26.1 77.7-0.2 12.6-2 25.1-5.6 37.1zM184 44V328h81v-284h-81z m636.4 353l-21.9-19 13.9-25.4c4.6-8.4 6.9-17.6 6.9-27.3 0-16.5-7.2-32.2-19.6-43l-21.9-19 13.9-25.4c4.6-8.4 6.9-17.6 6.9-27.3 0-16.5-7.2-32.2-19.6-43l-21.9-19 13.9-25.4c4.6-8.4 6.9-17.6 6.9-27.3 0-22.4-13.2-42.6-33.6-51.8H329V331.20000000000005l99.5 360.5c5.2 18.9 22.5 32.2 42.2 32.3 7.6 0 15.1-2.2 21.1-6.7 9.9-7.4 15.2-18.6 14.6-30.5l-9.6-198.4h314.4C829 477.5 840 459.1 840 440c0-16.5-7.2-32.1-19.6-43z"  horiz-adv-x="1024" />

    
    <glyph glyph-name="unlike" unicode="&#61529;" d="M885.9 405.7c3.6 12 5.4 24.4 5.4 37 0 28.3-9.3 55.5-26.1 77.7 3.6 12 5.4 24.4 5.4 37 0 28.3-9.3 55.5-26.1 77.7 3.6 12 5.4 24.4 5.4 37 0 51.6-30.7 98.1-78.3 118.4-8.3 3.6-17.2 5.4-26.5 5.4H144c-17.7 0-32-14.3-32-32v-364c0-17.7 14.3-32 32-32h129.3l85.8-310.8C372.9 7 418.9-28 470.9-28c29.7 0 57.4 11.8 77.9 33.4 20.5 21.5 31 49.7 29.5 79.4l-6 122.9h239.9c12.1 0 23.9 3.2 34.3 9.3 40.4 23.5 65.5 66.1 65.5 111 0 28.3-9.3 55.5-26.1 77.7zM184 440V724h81v-284h-81z m627.2-160.4H496.8l9.6-198.4c0.6-11.9-4.7-23.1-14.6-30.5-6.1-4.5-13.6-6.8-21.1-6.7-19.6 0.1-36.9 13.4-42.2 32.3L329 436.8V724h415.4c20.4-9.2 33.6-29.4 33.6-51.8 0-9.7-2.3-18.9-6.9-27.3l-13.9-25.4 21.9-19c12.5-10.8 19.6-26.5 19.6-43 0-9.7-2.3-18.9-6.9-27.3l-13.9-25.4 21.9-19c12.5-10.8 19.6-26.5 19.6-43 0-9.7-2.3-18.9-6.9-27.3l-14-25.5 21.9-19c12.5-10.8 19.6-26.5 19.6-43 0-19.1-11-37.5-28.8-48.4z"  horiz-adv-x="1024" />

    
    <glyph glyph-name="unlock" unicode="&#61538;" d="M832 432H332V656c0 30.9 25.1 56 56 56h248c30.9 0 56-25.1 56-56v-68c0-4.4 3.6-8 8-8h56c4.4 0 8 3.6 8 8v68c0 70.7-57.3 128-128 128H388c-70.7 0-128-57.3-128-128v-224h-68c-17.7 0-32-14.3-32-32v-384c0-17.7 14.3-32 32-32h640c17.7 0 32 14.3 32 32V400c0 17.7-14.3 32-32 32z m-40-376H232V360h560v-304zM484 195v-53c0-4.4 3.6-8 8-8h40c4.4 0 8 3.6 8 8v53c12.1 8.7 20 22.9 20 39 0 26.5-21.5 48-48 48s-48-21.5-48-48c0-16.1 7.9-30.3 20-39z"  horiz-adv-x="1024" />

    
    <glyph glyph-name="lock" unicode="&#61539;" d="M832 432h-68V656c0 70.7-57.3 128-128 128H388c-70.7 0-128-57.3-128-128v-224h-68c-17.7 0-32-14.3-32-32v-384c0-17.7 14.3-32 32-32h640c17.7 0 32 14.3 32 32V400c0 17.7-14.3 32-32 32zM332 656c0 30.9 25.1 56 56 56h248c30.9 0 56-25.1 56-56v-224H332V656z m460-600H232V360h560v-304zM484 195v-53c0-4.4 3.6-8 8-8h40c4.4 0 8 3.6 8 8v53c12.1 8.7 20 22.9 20 39 0 26.5-21.5 48-48 48s-48-21.5-48-48c0-16.1 7.9-30.3 20-39z"  horiz-adv-x="1024" />

    
    <glyph glyph-name="flag" unicode="&#61765;" d="M880 591H624V704c0 17.7-14.3 32-32 32H184v40c0 4.4-3.6 8-8 8h-56c-4.4 0-8-3.6-8-8v-784c0-4.4 3.6-8 8-8h56c4.4 0 8 3.6 8 8V256h248v-113c0-17.7 14.3-32 32-32h416c17.7 0 32 14.3 32 32V559c0 17.7-14.3 32-32 32zM184 328V664h368v-336H184z m656-145H504v73h112c4.4 0 8 3.6 8 8V519h216v-336z"  horiz-adv-x="1024" />

    
    <glyph glyph-name="shop" unicode="&#61719;" d="M882 623.9V752c0 17.7-14.3 32-32 32H174c-17.7 0-32-14.3-32-32v-128.1c-16.7-1-30-14.9-30-31.9v-131.7c0-24.4 4.8-48.1 14.4-70.4 4.3-10.2 9.6-19.8 15.6-28.9v-345c0-17.6 14.3-32 32-32h676c17.7 0 32 14.3 32 32V361c6.1 9.1 11.3 18.8 15.6 28.9 9.5 22.3 14.4 46 14.4 70.4V592c0 17-13.3 30.9-30 31.9zM214 712h596v-88H214v88z m362-656.1H448V160h128v-104.1z m234 0H640V192c0 17.7-14.3 32-32 32H416c-17.7 0-32-14.3-32-32v-136.1H214V298.1c2.9-1.4 5.9-2.8 9-4 22.3-9.4 46-14.1 70.4-14.1s48 4.7 70.4 14.1c13.8 5.8 26.8 13.2 38.7 22.1 0.2 0.1 0.4 0.1 0.6 0 11.9-8.9 24.8-16.3 38.7-22.1 22.3-9.4 46-14.1 70.4-14.1 24.4 0 48 4.7 70.4 14.1 13.8 5.8 26.8 13.2 38.7 22.1 0.2 0.1 0.4 0.1 0.6 0 11.9-8.9 24.8-16.3 38.7-22.1 22.3-9.4 46-14.1 70.4-14.1 24.4 0 48 4.7 70.4 14.1 3 1.3 6 2.6 9 4v-242.2z m30 404.4c0-59.8-49-108.3-109.3-108.3-40.8 0-76.4 22.1-95.2 54.9-2.9 5-8.1 8.1-13.9 8.1h-0.6c-5.7 0-11-3.1-13.9-8.1-18.7-32.8-54.3-54.9-95.1-54.9-40.7 0-76.2 22-95 54.7-3 5.1-8.4 8.3-14.3 8.3s-11.4-3.2-14.3-8.3C369.5 374 334 352 293.3 352 233 352 184 400.5 184 460.3v91.2c0 0.3 0.2 0.5 0.5 0.5h655c0.3 0 0.5-0.2 0.5-0.5v-91.2z"  horiz-adv-x="1024" />

    
    <glyph glyph-name="sliders" unicode="&#61590;" d="M320 672h-66v56c0 4.4-3.6 8-8 8h-52c-4.4 0-8-3.6-8-8v-56h-66c-4.4 0-8-3.6-8-8v-560c0-4.4 3.6-8 8-8h66v-56c0-4.4 3.6-8 8-8h52c4.4 0 8 3.6 8 8v56h66c4.4 0 8 3.6 8 8V664c0 4.4-3.6 8-8 8z m-60-508h-80V604h80v-440zM904 600h-66v96c0 4.4-3.6 8-8 8h-52c-4.4 0-8-3.6-8-8v-96h-66c-4.4 0-8-3.6-8-8v-416c0-4.4 3.6-8 8-8h66v-96c0-4.4 3.6-8 8-8h52c4.4 0 8 3.6 8 8v96h66c4.4 0 8 3.6 8 8V592c0 4.4-3.6 8-8 8z m-60-364h-80V532h80v-296zM612 492h-66V664c0 4.4-3.6 8-8 8h-52c-4.4 0-8-3.6-8-8v-172h-66c-4.4 0-8-3.6-8-8v-200c0-4.4 3.6-8 8-8h66v-172c0-4.4 3.6-8 8-8h52c4.4 0 8 3.6 8 8V276h66c4.4 0 8 3.6 8 8V484c0 4.4-3.6 8-8 8z m-60-145c0-1.6-1.3-3-3-3h-74c-1.6 0-3 1.3-3 3v74c0 1.6 1.3 3 3 3h74c1.6 0 3-1.3 3-3v-74z"  horiz-adv-x="1024" />

    
    <glyph glyph-name="barcode" unicode="&#61764;" d="M120 736H72c-4.4 0-8-3.6-8-8v-688c0-4.4 3.6-8 8-8h48c4.4 0 8 3.6 8 8V728c0 4.4-3.6 8-8 8zM953 736h-48c-4.4 0-8-3.6-8-8v-688c0-4.4 3.6-8 8-8h48c4.4 0 8 3.6 8 8V728c0 4.4-3.6 8-8 8zM200 160h112c4.4 0 8 3.6 8 8V728c0 4.4-3.6 8-8 8H200c-4.4 0-8-3.6-8-8v-560c0-4.4 3.6-8 8-8zM521 160h48c4.4 0 8 3.6 8 8V728c0 4.4-3.6 8-8 8h-48c-4.4 0-8-3.6-8-8v-560c0-4.4 3.6-8 8-8zM647 160h178c4.4 0 8 3.6 8 8V728c0 4.4-3.6 8-8 8H647c-4.4 0-8-3.6-8-8v-560c0-4.4 3.6-8 8-8zM392 160h48c4.4 0 8 3.6 8 8V728c0 4.4-3.6 8-8 8h-48c-4.4 0-8-3.6-8-8v-560c0-4.4 3.6-8 8-8zM313 96H201c-4.4 0-8-3.6-8-8v-48c0-4.4 3.6-8 8-8h112c4.4 0 8 3.6 8 8v48c0 4.4-3.6 8-8 8zM570 96h-48c-4.4 0-8-3.6-8-8v-48c0-4.4 3.6-8 8-8h48c4.4 0 8 3.6 8 8v48c0 4.4-3.6 8-8 8zM826 96H648c-4.4 0-8-3.6-8-8v-48c0-4.4 3.6-8 8-8h178c4.4 0 8 3.6 8 8v48c0 4.4-3.6 8-8 8zM441 96h-48c-4.4 0-8-3.6-8-8v-48c0-4.4 3.6-8 8-8h48c4.4 0 8 3.6 8 8v48c0 4.4-3.6 8-8 8z"  horiz-adv-x="1024" />

    
    <glyph glyph-name="camera" unicode="&#61542;" d="M864 648H728l-32.4 90.8C691 751.5 679 760 665.4 760H358.6c-13.5 0-25.6-8.5-30.1-21.2L296 648H160c-44.2 0-80-35.8-80-80v-456c0-44.2 35.8-80 80-80h704c44.2 0 80 35.8 80 80V568c0 44.2-35.8 80-80 80z m8-536c0-4.4-3.6-8-8-8H160c-4.4 0-8 3.6-8 8V568c0 4.4 3.6 8 8 8h186.7l17.1 47.8 22.9 64.2h250.5l22.9-64.2 17.1-47.8H864c4.4 0 8-3.6 8-8v-456zM512 512c-88.4 0-160-71.6-160-160s71.6-160 160-160 160 71.6 160 160-71.6 160-160 160z m0-256c-53 0-96 43-96 96s43 96 96 96 96-43 96-96-43-96-96-96z"  horiz-adv-x="1024" />

    
    <glyph glyph-name="cluster" unicode="&#61720;" d="M888 216h-54V356H546v92h238c8.8 0 16 7.2 16 16V728c0 8.8-7.2 16-16 16H240c-8.8 0-16-7.2-16-16v-264c0-8.8 7.2-16 16-16h238v-92H190v-140h-54c-4.4 0-8-3.6-8-8v-176c0-4.4 3.6-8 8-8h176c4.4 0 8 3.6 8 8V208c0 4.4-3.6 8-8 8h-54v72h220v-72h-54c-4.4 0-8-3.6-8-8v-176c0-4.4 3.6-8 8-8h176c4.4 0 8 3.6 8 8V208c0 4.4-3.6 8-8 8h-54v72h220v-72h-54c-4.4 0-8-3.6-8-8v-176c0-4.4 3.6-8 8-8h176c4.4 0 8 3.6 8 8V208c0 4.4-3.6 8-8 8zM256 90.70000000000005c0-1.5-1.2-2.7-2.7-2.7h-58.7c-1.5 0-2.7 1.2-2.7 2.7v58.7c0 1.5 1.2 2.7 2.7 2.7h58.7c1.5 0 2.7-1.2 2.7-2.7v-58.7z m288 0c0-1.5-1.2-2.7-2.7-2.7h-58.7c-1.5 0-2.7 1.2-2.7 2.7v58.7c0 1.5 1.2 2.7 2.7 2.7h58.7c1.5 0 2.7-1.2 2.7-2.7v-58.7zM288 512V680h448v-168H288z m544-421.3c0-1.5-1.2-2.7-2.7-2.7h-58.7c-1.5 0-2.7 1.2-2.7 2.7v58.7c0 1.5 1.2 2.7 2.7 2.7h58.7c1.5 0 2.7-1.2 2.7-2.7v-58.7zM400 596m-40 0a40 40 0 1 1 80 0 40 40 0 1 1-80 0Z"  horiz-adv-x="1024" />

    
    <glyph glyph-name="printer" unicode="&#61592;" d="M820 460h-40c-4.4 0-8-3.6-8-8v-40c0-4.4 3.6-8 8-8h40c4.4 0 8 3.6 8 8v40c0 4.4-3.6 8-8 8zM852 564H732V776c0 4.4-3.6 8-8 8H300c-4.4 0-8-3.6-8-8v-212H172c-44.2 0-80-35.8-80-80v-328c0-17.7 14.3-32 32-32h168v-132c0-4.4 3.6-8 8-8h424c4.4 0 8 3.6 8 8V124h168c17.7 0 32 14.3 32 32V484c0 44.2-35.8 80-80 80zM360 716h304v-152H360V716z m304-664H360V328h304v-276z m200 140H732V396H292v-204H160V484c0 6.6 5.4 12 12 12h680c6.6 0 12-5.4 12-12v-292z"  horiz-adv-x="1024" />

    
    <glyph glyph-name="read" unicode="&#61572;" d="M928 735H699.2c-49.1 0-97.1-14.1-138.4-40.7L512 663l-48.8 31.3C422 720.9 373.9 735 324.8 735H96c-17.7 0-32-14.3-32-32v-568c0-17.7 14.3-32 32-32h228.8c49.1 0 97.1-14.1 138.4-40.7l44.4-28.6c1.3-0.8 2.8-1.3 4.3-1.3s3 0.4 4.3 1.3l44.4 28.6C602 88.89999999999998 650.1 103 699.2 103H928c17.7 0 32 14.3 32 32V703c0 17.7-14.3 32-32 32zM324.8 175H136V663h188.8c35.4 0 69.8-10.1 99.5-29.2l48.8-31.3 6.9-4.5v-462c-47.6 25.6-100.8 39-155.2 39z m563.2 0H699.2c-54.4 0-107.6-13.4-155.2-39V598l6.9 4.5 48.8 31.3c29.7 19.1 64.1 29.2 99.5 29.2H888v-488zM396.9 535H211.1c-3.9 0-7.1-3.4-7.1-7.5v-45c0-4.1 3.2-7.5 7.1-7.5h185.7c3.9 0 7.1 3.4 7.1 7.5v45c0.1 4.1-3.1 7.5-7 7.5zM620 527.5v-45c0-4.1 3.2-7.5 7.1-7.5h185.7c3.9 0 7.1 3.4 7.1 7.5v45c0 4.1-3.2 7.5-7.1 7.5H627.1c-3.9 0-7.1-3.4-7.1-7.5zM396.9 395H211.1c-3.9 0-7.1-3.4-7.1-7.5v-45c0-4.1 3.2-7.5 7.1-7.5h185.7c3.9 0 7.1 3.4 7.1 7.5v45c0.1 4.1-3.1 7.5-7 7.5zM812.9 395H627.1c-3.9 0-7.1-3.4-7.1-7.5v-45c0-4.1 3.2-7.5 7.1-7.5h185.7c3.9 0 7.1 3.4 7.1 7.5v45c0.1 4.1-3.1 7.5-7 7.5z"  horiz-adv-x="1024" />

    
    <glyph glyph-name="cloud-upload" unicode="&#61576;" d="M518.3 437c-3.2 4.1-9.4 4.1-12.6 0l-112-141.7c-4.1-5.2-0.4-12.9 6.3-12.9h73.9V40c0-4.4 3.6-8 8-8h60c4.4 0 8 3.6 8 8V282.29999999999995H624c6.7 0 10.4 7.7 6.3 12.9L518.3 437zM811.4 529.3C765.6 650.1 648.9 736 512.2 736S258.8 650.2 213 529.4C127.3 506.9 64 428.8 64 336c0-110.5 89.5-200 199.9-200H304c4.4 0 8 3.6 8 8v60c0 4.4-3.6 8-8 8h-40.1c-33.7 0-65.4 13.4-89 37.7-23.5 24.2-36 56.8-34.9 90.6 0.9 26.4 9.9 51.2 26.2 72.1 16.7 21.3 40.1 36.8 66.1 43.7l37.9 9.9 13.9 36.6c8.6 22.8 20.6 44.1 35.7 63.4 14.9 19.2 32.6 35.9 52.4 49.9 41.1 28.9 89.5 44.2 140 44.2s98.9-15.3 140-44.2c19.9-14 37.5-30.8 52.4-49.9 15.1-19.3 27.1-40.7 35.7-63.4l13.8-36.5 37.8-10C846.1 441.5 884 392.2 884 336c0-33.1-12.9-64.3-36.3-87.7-23.4-23.4-54.5-36.3-87.6-36.3H720c-4.4 0-8-3.6-8-8v-60c0-4.4 3.6-8 8-8h40.1C870.5 136 960 225.5 960 336c0 92.7-63.1 170.7-148.6 193.3z"  horiz-adv-x="1024" />

    
    <glyph glyph-name="cloud-download" unicode="&#61575;" d="M624 189.70000000000005h-74.1V432c0 4.4-3.6 8-8 8h-60c-4.4 0-8-3.6-8-8v-242.3H400c-6.7 0-10.4-7.7-6.3-12.9l112-141.7c3.2-4.1 9.4-4.1 12.6 0l112 141.7c4.1 5.2 0.4 12.9-6.3 12.9zM811.4 529.3C765.6 650.1 648.9 736 512.2 736S258.8 650.2 213 529.4C127.3 506.9 64 428.8 64 336c0-110.5 89.5-200 199.9-200H304c4.4 0 8 3.6 8 8v60c0 4.4-3.6 8-8 8h-40.1c-33.7 0-65.4 13.4-89 37.7-23.5 24.2-36 56.8-34.9 90.6 0.9 26.4 9.9 51.2 26.2 72.1 16.7 21.3 40.1 36.8 66.1 43.7l37.9 9.9 13.9 36.6c8.6 22.8 20.6 44.1 35.7 63.4 14.9 19.2 32.6 35.9 52.4 49.9 41.1 28.9 89.5 44.2 140 44.2s98.9-15.3 140-44.2c19.9-14 37.5-30.8 52.4-49.9 15.1-19.3 27.1-40.7 35.7-63.4l13.8-36.5 37.8-10C846.1 441.5 884 392.2 884 336c0-33.1-12.9-64.3-36.3-87.7-23.4-23.4-54.5-36.3-87.6-36.3H720c-4.4 0-8-3.6-8-8v-60c0-4.4 3.6-8 8-8h40.1C870.5 136 960 225.5 960 336c0 92.7-63.1 170.7-148.6 193.3z"  horiz-adv-x="1024" />

    
    <glyph glyph-name="idcard" unicode="&#61577;" d="M928 736H96c-17.7 0-32-14.3-32-32v-640c0-17.7 14.3-32 32-32h832c17.7 0 32 14.3 32 32V704c0 17.7-14.3 32-32 32z m-40-632H136V664h752v-560zM610.3 420h123.4c1.3 0 2.3 3.6 2.3 8v48c0 4.4-1 8-2.3 8H610.3c-1.3 0-2.3-3.6-2.3-8v-48c0-4.4 1-8 2.3-8zM615.1 276h185.7c3.9 0 7.1 3.6 7.1 8v48c0 4.4-3.2 8-7.1 8H615.1c-3.9 0-7.1-3.6-7.1-8v-48c0-4.4 3.2-8 7.1-8zM224 223h43.9c4.2 0 7.6 3.3 7.9 7.5 3.8 50.5 46 90.5 97.2 90.5s93.4-40 97.2-90.5c0.3-4.2 3.7-7.5 7.9-7.5H522c4.6 0 8.2 3.8 8 8.4-2.8 53.3-32 99.7-74.6 126.1 18.1 19.9 29.1 46.4 29.1 75.5 0 61.9-49.9 112-111.4 112s-111.4-50.1-111.4-112c0-29.1 11-55.5 29.1-75.5-42.7-26.5-71.8-72.8-74.6-126.1-0.4-4.6 3.2-8.4 7.8-8.4z m149 262c28.5 0 51.7-23.3 51.7-52s-23.2-52-51.7-52-51.7 23.3-51.7 52 23.2 52 51.7 52z"  horiz-adv-x="1024" />

    
    <glyph glyph-name="creditcard" unicode="&#61716;" d="M928 736H96c-17.7 0-32-14.3-32-32v-640c0-17.7 14.3-32 32-32h832c17.7 0 32 14.3 32 32V704c0 17.7-14.3 32-32 32z m-792-72h752v-120H136V664z m752-560H136V456h752v-352zM651 168h165c4.4 0 8 3.6 8 8v72c0 4.4-3.6 8-8 8H651c-4.4 0-8-3.6-8-8v-72c0-4.4 3.6-8 8-8z"  horiz-adv-x="1024" />

    
    <glyph glyph-name="heart" unicode="&#61763;" d="M923 612.4c-13.4 31.1-32.6 58.9-56.9 82.8-24.3 23.8-52.5 42.4-84 55.5-32.5 13.5-66.9 20.3-102.4 20.3-49.3 0-97.4-13.5-139.2-39-10-6.1-19.5-12.8-28.5-20.1-9 7.3-18.5 14-28.5 20.1-41.8 25.5-89.9 39-139.2 39-35.5 0-69.9-6.8-102.4-20.3-31.4-13-59.7-31.7-84-55.5-24.4-23.9-43.5-51.7-56.9-82.8-13.9-32.3-21-66.6-21-101.9 0-33.3 6.8-68 20.3-103.3 11.3-29.5 27.5-60.1 48.2-91 32.8-48.9 77.9-99.9 133.9-151.6 92.8-85.7 184.7-144.9 188.6-147.3l23.7-15.2c10.5-6.7 24-6.7 34.5 0l23.7 15.2c3.9 2.5 95.7 61.6 188.6 147.3 56 51.7 101.1 102.7 133.9 151.6 20.7 30.9 37 61.5 48.2 91 13.5 35.3 20.3 70 20.3 103.3 0.1 35.3-7 69.6-20.9 101.9zM512 81.20000000000005S156 309.29999999999995 156 510.5C156 612.4 240.3 695 344.3 695c73.1 0 136.5-40.8 167.7-100.4C543.2 654.2 606.6 695 679.7 695c104 0 188.3-82.6 188.3-184.5 0-201.2-356-429.3-356-429.3z"  horiz-adv-x="1024" />

    
    <glyph glyph-name="error" unicode="&#61558;" d="M512 176m-48 0a48 48 0 1 1 96 0 48 48 0 1 1-96 0ZM480 480v-184c0-4.4 3.6-8 8-8h48c4.4 0 8 3.6 8 8V480c0 4.4-3.6 8-8 8h-48c-4.4 0-8-3.6-8-8zM955.7 40l-416 720c-6.2 10.7-16.9 16-27.7 16s-21.6-5.3-27.7-16l-416-720C56 18.600000000000023 71.4-8 96-8h832c24.6 0 40 26.6 27.7 48z m-783.5 27.9L512 656.1l339.8-588.2H172.2z"  horiz-adv-x="1024" />

    
    <glyph glyph-name="man" unicode="&#61462;" d="M874 776H622c-3.3 0-6-2.7-6-6v-56c0-3.3 2.7-6 6-6h160.4L583.1 508.7c-50 38.5-111 59.3-175.1 59.3-76.9 0-149.3-30-203.6-84.4S120 356.9 120 280s30-149.3 84.4-203.6C258.7 22 331.1-8 408-8s149.3 30 203.6 84.4C666 130.70000000000005 696 203.10000000000002 696 280c0 64.1-20.8 124.9-59.2 174.9L836 654.1V494c0-3.3 2.7-6 6-6h56c3.3 0 6 2.7 6 6V746c0 16.5-13.5 30-30 30zM408 68c-116.9 0-212 95.1-212 212s95.1 212 212 212 212-95.1 212-212-95.1-212-212-212z"  horiz-adv-x="1024" />

    
    <glyph glyph-name="right" unicode="&#61476;" d="M765.7 409.2L314.9 761.3c-5.3 4.1-12.9 0.4-12.9-6.3v-77.3c0-4.9 2.3-9.6 6.1-12.6l360-281.1-360-281.1c-3.9-3-6.1-7.7-6.1-12.6V13c0-6.7 7.7-10.4 12.9-6.3l450.8 352.1c16.4 12.8 16.4 37.6 0 50.4z"  horiz-adv-x="1024" />

    
    <glyph glyph-name="left" unicode="&#61475;" d="M724 677.7V755c0 6.7-7.7 10.4-12.9 6.3L260.3 409.2c-16.4-12.8-16.4-37.5 0-50.3l450.8-352.1c5.3-4.1 12.9-0.4 12.9 6.3v77.3c0 4.9-2.3 9.6-6.1 12.6l-360 281 360 281.1c3.8 3 6.1 7.7 6.1 12.6z"  horiz-adv-x="1024" />

    
    <glyph glyph-name="doubleleft" unicode="&#61474;" d="M272.9 384l265.4 339.1c4.1 5.2 0.4 12.9-6.3 12.9h-77.3c-4.9 0-9.6-2.3-12.6-6.1L186.8 403.7c-9.1-11.6-9.1-27.9 0-39.5l255.3-326.1c3-3.9 7.7-6.1 12.6-6.1H532c6.7 0 10.4 7.7 6.3 12.9L272.9 384zM576.9 384l265.4 339.1c4.1 5.2 0.4 12.9-6.3 12.9h-77.3c-4.9 0-9.6-2.3-12.6-6.1L490.8 403.7c-9.1-11.6-9.1-27.9 0-39.5l255.3-326.1c3-3.9 7.7-6.1 12.6-6.1H836c6.7 0 10.4 7.7 6.3 12.9L576.9 384z"  horiz-adv-x="1024" />

    
    <glyph glyph-name="doubleright" unicode="&#61473;" d="M533.2 403.7L277.9 729.9c-3 3.9-7.7 6.1-12.6 6.1H188c-6.7 0-10.4-7.7-6.3-12.9L447.1 384 181.7 44.89999999999998c-4.1-5.2-0.4-12.9 6.3-12.9h77.3c4.9 0 9.6 2.3 12.6 6.1l255.3 326.1c9.1 11.7 9.1 27.9 0 39.5zM837.2 403.7L581.9 729.9c-3 3.9-7.7 6.1-12.6 6.1H492c-6.7 0-10.4-7.7-6.3-12.9L751.1 384 485.7 44.89999999999998c-4.1-5.2-0.4-12.9 6.3-12.9h77.3c4.9 0 9.6 2.3 12.6 6.1l255.3 326.1c9.1 11.7 9.1 27.9 0 39.5z"  horiz-adv-x="1024" />

    
    <glyph glyph-name="fall" unicode="&#61761;" d="M925.9 92l-24 199.2c-0.8 6.6-8.9 9.4-13.6 4.7L829 236.5 557.7 507.7c-6.3 6.2-16.4 6.2-22.6 0L433.3 406 156.6 682.7c-3.1 3.1-8.2 3.1-11.3 0l-45-45.2c-3.1-3.1-3.1-8.2 0-11.3L422 304.29999999999995c6.2-6.3 16.4-6.3 22.6 0L546.4 406l226.1-226-59.3-59.3c-4.7-4.7-1.9-12.8 4.7-13.6l199.2-24c5.1-0.7 9.5 3.7 8.8 8.9z"  horiz-adv-x="1024" />

    
    <glyph glyph-name="rise" unicode="&#61760;" d="M917 684.9l-199.2-24c-6.6-0.8-9.4-8.9-4.7-13.6l59.3-59.3-226-226-101.8 101.7c-6.3 6.3-16.4 6.2-22.6 0L100.3 141.89999999999998c-3.1-3.1-3.1-8.2 0-11.3l45-45.2c3.1-3.1 8.2-3.1 11.3 0L433.3 362 535 260.29999999999995c6.3-6.2 16.4-6.2 22.6 0L829 531.5l59.3-59.3c4.7-4.7 12.8-1.9 13.6 4.7l24 199.2c0.7 5.1-3.7 9.5-8.9 8.8z"  horiz-adv-x="1024" />

    
    <glyph glyph-name="menu" unicode="&#61715;" d="M904 736H120c-4.4 0-8-3.6-8-8v-64c0-4.4 3.6-8 8-8h784c4.4 0 8 3.6 8 8v64c0 4.4-3.6 8-8 8zM904 112H120c-4.4 0-8-3.6-8-8v-64c0-4.4 3.6-8 8-8h784c4.4 0 8 3.6 8 8v64c0 4.4-3.6 8-8 8zM904 424H120c-4.4 0-8-3.6-8-8v-64c0-4.4 3.6-8 8-8h784c4.4 0 8 3.6 8 8v64c0 4.4-3.6 8-8 8z"  horiz-adv-x="1024" />

    
    <glyph glyph-name="unorderedlist" unicode="&#61714;" d="M912 704H328c-4.4 0-8-3.6-8-8v-56c0-4.4 3.6-8 8-8h584c4.4 0 8 3.6 8 8v56c0 4.4-3.6 8-8 8zM912 420H328c-4.4 0-8-3.6-8-8v-56c0-4.4 3.6-8 8-8h584c4.4 0 8 3.6 8 8v56c0 4.4-3.6 8-8 8zM912 136H328c-4.4 0-8-3.6-8-8v-56c0-4.4 3.6-8 8-8h584c4.4 0 8 3.6 8 8v56c0 4.4-3.6 8-8 8zM160 668m-56 0a56 56 0 1 1 112 0 56 56 0 1 1-112 0ZM160 384m-56 0a56 56 0 1 1 112 0 56 56 0 1 1-112 0ZM160 100m-56 0a56 56 0 1 1 112 0 56 56 0 1 1-112 0Z"  horiz-adv-x="1024" />

    
    <glyph glyph-name="bg-colors" unicode="&#61698;" d="M766.4 151.70000000000005c43.7 0 79.4 36.2 79.4 80.5 0 53.5-79.4 140.8-79.4 140.8S687 285.70000000000005 687 232.20000000000005c0-44.3 35.7-80.5 79.4-80.5zM389.3 195.79999999999995c7.1-7.1 18.6-7.1 25.6 0l256.1 256c7.1 7.1 7.1 18.6 0 25.6l-256 256c-0.6 0.6-1.3 1.2-2 1.7l-78.2 78.2c-3.5 3.5-9.3 3.5-12.8 0l-48-48c-3.5-3.5-3.5-9.3 0-12.8l67.2-67.2-207.8-207.9c-7.1-7.1-7.1-18.6 0-25.6l255.9-256z m12.9 448.6l178.9-178.9H223.4l178.8 178.9zM904 80H120c-4.4 0-8-3.6-8-8v-80c0-4.4 3.6-8 8-8h784c4.4 0 8 3.6 8 8v80c0 4.4-3.6 8-8 8z"  horiz-adv-x="1024" />

    
    <glyph glyph-name="gift" unicode="&#61540;" d="M880 586H732.4c13.6 21.4 21.6 46.8 21.6 74 0 76.1-61.9 138-138 138-41.4 0-78.7-18.4-104-47.4-25.3 29-62.6 47.4-104 47.4-76.1 0-138-61.9-138-138 0-27.2 7.9-52.6 21.6-74H144c-17.7 0-32-14.3-32-32v-200c0-4.4 3.6-8 8-8h40v-344c0-17.7 14.3-32 32-32h640c17.7 0 32 14.3 32 32V346h40c4.4 0 8 3.6 8 8V554c0 17.7-14.3 32-32 32z m-334 74c0 38.6 31.4 70 70 70s70-31.4 70-70-31.4-70-70-70h-70v70z m-138 70c38.6 0 70-31.4 70-70v-70h-70c-38.6 0-70 31.4-70 70s31.4 70 70 70zM180 414V518h298v-104H180z m48-68h250v-308H228V346z m568-308H546V346h250v-308z m48 376H546V518h298v-104z"  horiz-adv-x="1024" />

    
    <glyph glyph-name="question-circle-fill" unicode="&#61445;" d="M512 861.86666667C248.10666667 861.86666667 34.13333333 647.89333333 34.13333333 384s213.97333333-477.86666667 477.86666667-477.86666667 477.86666667 213.97333333 477.86666667 477.86666667S775.89333333 861.86666667 512 861.86666667z m0-755.2c-23.57333333 0-42.66666667 19.09333333-42.66666667 42.66666666s19.09333333 42.66666667 42.66666667 42.66666667 42.66666667-19.09333333 42.66666667-42.66666667-19.09333333-42.66666667-42.66666667-42.66666666z m67.09333333 234.13333333c-19.73333333-7.57333333-32.96-26.77333333-32.96-47.78666667V268.79999999999995c0-4.69333333-3.84-8.53333333-8.53333333-8.53333333h-51.2c-4.69333333 0-8.53333333 3.84-8.53333333 8.53333333v22.93333333c0 24.64 7.14666667 48.96 21.22666666 69.22666667 13.76 19.84 32.96 34.98666667 55.57333334 43.62666667 36.26666667 13.97333333 59.73333333 44.37333333 59.73333333 77.54666666 0 47.04-45.97333333 85.33333333-102.4 85.33333334s-102.4-38.29333333-102.4-85.33333334v-8.10666666c0-4.69333333-3.84-8.53333333-8.53333333-8.53333334h-51.2c-4.69333333 0-8.53333333 3.84-8.53333334 8.53333334V482.13333333c0 41.92 18.34666667 81.06666667 51.62666667 110.18666667C424.96 620.3733333299999 467.2 635.73333333 512 635.73333333s87.04-15.46666667 119.04-43.41333333C664.32 563.2 682.66666667 524.05333333 682.66666667 482.13333333c0-61.65333333-40.64-117.12-103.57333334-141.33333333z"  horiz-adv-x="1024" />

    
    <glyph glyph-name="frown-fill" unicode="&#61449;" d="M512 832C264.6 832 64 631.4 64 384s200.6-448 448-448 448 200.6 448 448S759.4 832 512 832zM288 475c0 26.5 21.5 48 48 48s48-21.5 48-48-21.5-48-48-48-48 21.5-48 48z m376-272h-48.1c-4.2 0-7.8 3.2-8.1 7.4C604 259.9 562.5 299 512 299s-92.1-39.1-95.8-88.6c-0.3-4.2-3.9-7.4-8.1-7.4H360c-4.6 0-8.2 3.8-8 8.4 4.4 84.3 74.5 151.6 160 151.6s155.6-67.3 160-151.6c0.2-4.6-3.4-8.4-8-8.4z m24 224c-26.5 0-48 21.5-48 48s21.5 48 48 48 48-21.5 48-48-21.5-48-48-48z"  horiz-adv-x="1024" />

    
    <glyph glyph-name="meh-fill" unicode="&#61448;" d="M512 832C264.6 832 64 631.4 64 384s200.6-448 448-448 448 200.6 448 448S759.4 832 512 832zM288 475c0 26.5 21.5 48 48 48s48-21.5 48-48-21.5-48-48-48-48 21.5-48 48z m384-200c0-4.4-3.6-8-8-8H360c-4.4 0-8 3.6-8 8v48c0 4.4 3.6 8 8 8h304c4.4 0 8-3.6 8-8v-48z m16 152c-26.5 0-48 21.5-48 48s21.5 48 48 48 48-21.5 48-48-21.5-48-48-48z"  horiz-adv-x="1024" />

    
    <glyph glyph-name="smile-fill" unicode="&#61447;" d="M512 832C264.6 832 64 631.4 64 384s200.6-448 448-448 448 200.6 448 448S759.4 832 512 832zM288 475c0 26.5 21.5 48 48 48s48-21.5 48-48-21.5-48-48-48-48 21.5-48 48z m224-272c-85.5 0-155.6 67.3-160 151.6-0.2 4.6 3.4 8.4 8 8.4h48.1c4.2 0 7.8-3.2 8.1-7.4C420 306.1 461.5 267 512 267s92.1 39.1 95.8 88.6c0.3 4.2 3.9 7.4 8.1 7.4H664c4.6 0 8.2-3.8 8-8.4-4.4-84.3-74.5-151.6-160-151.6z m176 224c-26.5 0-48 21.5-48 48s21.5 48 48 48 48-21.5 48-48-21.5-48-48-48z"  horiz-adv-x="1024" />

    
    <glyph glyph-name="YUAN-circle-fill" unicode="&#61505;" d="M512 832C264.6 832 64 631.4 64 384s200.6-448 448-448 448 200.6 448 448S759.4 832 512 832z m166.6-246.8L567.5 380.4h62c4.4 0 8-3.6 8-8v-29.9c0-4.4-3.6-8-8-8h-82V293h82c4.4 0 8-3.6 8-8v-29.9c0-4.4-3.6-8-8-8h-82V179c0-4.4-3.6-8-8-8h-54.3c-4.4 0-8 3.6-8 8v68.1h-81.7c-4.4 0-8 3.6-8 8V285c0 4.4 3.6 8 8 8h81.7v41.5h-81.7c-4.4 0-8 3.6-8 8v29.9c0 4.4 3.6 8 8 8h61.4L345.4 585.2c-2.1 3.9-0.7 8.7 3.2 10.9 1.2 0.6 2.5 1 3.8 1h60.7c3 0 5.8-1.7 7.1-4.4l90.6-180h3.4l90.6 180c1.4 2.7 4.1 4.4 7.1 4.4h59.5c4.4 0 8-3.6 8-8 0.2-1.4-0.2-2.7-0.8-3.9z"  horiz-adv-x="1024" />

    
    <glyph glyph-name="heart-fill" unicode="&#61762;" d="M923 612.4c-13.4 31.1-32.6 58.9-56.9 82.8-24.3 23.8-52.5 42.4-84 55.5-32.5 13.5-66.9 20.3-102.4 20.3-49.3 0-97.4-13.5-139.2-39-10-6.1-19.5-12.8-28.5-20.1-9 7.3-18.5 14-28.5 20.1-41.8 25.5-89.9 39-139.2 39-35.5 0-69.9-6.8-102.4-20.3-31.4-13-59.7-31.7-84-55.5-24.4-23.9-43.5-51.7-56.9-82.8-13.9-32.3-21-66.6-21-101.9 0-33.3 6.8-68 20.3-103.3 11.3-29.5 27.5-60.1 48.2-91 32.8-48.9 77.9-99.9 133.9-151.6 92.8-85.7 184.7-144.9 188.6-147.3l23.7-15.2c10.5-6.7 24-6.7 34.5 0l23.7 15.2c3.9 2.5 95.7 61.6 188.6 147.3 56 51.7 101.1 102.7 133.9 151.6 20.7 30.9 37 61.5 48.2 91 13.5 35.3 20.3 70 20.3 103.3 0.1 35.3-7 69.6-20.9 101.9z"  horiz-adv-x="1024" />

    
    <glyph glyph-name="save-fill" unicode="&#61571;" d="M893.3 602.7L730.7 765.3c-12 12-28.3 18.7-45.3 18.7H144c-17.7 0-32-14.3-32-32v-736c0-17.7 14.3-32 32-32h736c17.7 0 32 14.3 32 32V557.5c0 17-6.7 33.2-18.7 45.2zM384 720h256v-112H384V720z m128-554c-79.5 0-144 64.5-144 144s64.5 144 144 144 144-64.5 144-144-64.5-144-144-144zM512 390c-44.2 0-80-35.8-80-80s35.8-80 80-80 80 35.8 80 80-35.8 80-80 80z"  horiz-adv-x="1024" />

    
    <glyph glyph-name="redenvelope-fill" unicode="&#61544;" d="M832 832H192c-17.7 0-32-14.3-32-32v-832c0-17.7 14.3-32 32-32h640c17.7 0 32 14.3 32 32V800c0 17.7-14.3 32-32 32zM647 425.6l-87.2-161h45.9c4.6 0 8.4-3.8 8.4-8.4v-25.1c0-4.6-3.8-8.4-8.4-8.4h-63.3v-28.6h63.3c4.6 0 8.4-3.8 8.4-8.4v-25c0.2-4.6-3.6-8.5-8.2-8.5h-63.3v-49.9c0-4.6-3.8-8.4-8.4-8.4h-43.7c-4.6 0-8.4 3.8-8.4 8.4v49.9h-63c-4.6 0-8.4 3.8-8.4 8.4v25.1c0 4.6 3.8 8.4 8.4 8.4h63v28.6h-63c-4.6 0-8.4 3.8-8.4 8.4v25.1c0 4.6 3.8 8.4 8.4 8.4h45.4l-87.5 161c-2.2 4.1-0.7 9.1 3.4 11.4 1.3 0.6 2.6 1 3.9 1h48.8c3.2 0 6.1-1.8 7.5-4.6l71.9-141.8 71.9 141.9c1.5 2.8 4.3 4.6 7.5 4.6h47.8c4.6 0 8.4-3.8 8.4-8.4-0.1-1.5-0.5-2.9-1.1-4.1zM512.6 573L289 748h446L512.6 573z"  horiz-adv-x="1024" />

    
    <glyph glyph-name="propertysafety-fill" unicode="&#61508;" d="M866.9 726.1L527.1 841.9C523 843.3 517.5 844 512 844s-11-0.7-15.1-2.1L157.1 726.1c-8.3-2.8-15.1-12.4-15.1-21.2v-482.4c0-8.8 5.7-20.4 12.6-25.9L499.3-72c3.5-2.7 8-4.1 12.6-4.1s9.2 1.4 12.6 4.1l344.7 268.6c6.9 5.4 12.6 17 12.6 25.9V704.9c0.2 8.8-6.6 18.3-14.9 21.2zM648.3 563.2l-87.7-161.1h45.7c5.5 0 10-4.5 10-10v-21.3c0-5.5-4.5-10-10-10h-63.4v-29.7h63.4c5.5 0 10-4.5 10-10v-21.3c0-5.5-4.5-10-10-10h-63.4V238c0-5.5-4.5-10-10-10h-41.3c-5.5 0-10 4.5-10 10v51.8h-63.1c-5.5 0-10 4.5-10 10v21.3c0 5.5 4.5 10 10 10h63.1v29.7h-63.1c-5.5 0-10 4.5-10 10v21.3c0 5.5 4.5 10 10 10h45.2l-88 161.1c-2.6 4.8-0.9 10.9 4 13.6 1.5 0.8 3.1 1.2 4.8 1.2h46c3.8 0 7.2-2.1 8.9-5.5l72.9-144.3 73.2 144.3c1.7 3.4 5.2 5.5 8.9 5.5h45c5.5 0 10-4.5 10-10 0.1-1.7-0.3-3.3-1.1-4.8z"  horiz-adv-x="1024" />

    
    <glyph glyph-name="insurance-fill" unicode="&#61510;" d="M519.9 537.2h97.9v-41.6h-97.9zM866.9 726.1L527.1 841.9C523 843.3 517.5 844 512 844s-11-0.7-15.1-2.1L157.1 726.1c-8.3-2.8-15.1-12.4-15.1-21.2v-482.4c0-8.8 5.7-20.4 12.6-25.9L499.3-72c3.5-2.7 8-4.1 12.6-4.1s9.2 1.4 12.6 4.1l344.7 268.6c6.9 5.4 12.6 17 12.6 25.9V704.9c0.2 8.8-6.6 18.3-14.9 21.2zM411.3 240h-0.2c0-4.4-3.6-8-8-8h-37.3c-4.4 0-8 3.6-8 8V424.6c-7.7-9.2-15.4-17.9-23.1-26-3.2-3.4-8.8-2.1-10.2 2.4l-13.2 43.5c-0.6 2-0.2 4.1 1.2 5.6 37 43.4 64.7 95.1 82.2 153.6 1.1 3.5 5 5.3 8.4 3.7l38.6-18.3c2.7-1.3 4.1-4.4 3.2-7.2-8.5-27.3-19.8-53.9-33.6-79V240z m296.5 49.2l-26.3-35.3c-2.2-2.9-6.3-3.2-8.9-0.7-30.6 29.3-56.8 65.2-78.1 106.9V240c0-4.4-3.6-8-8-8h-36.2c-4.4 0-8 3.6-8 8V360c-22-44.7-49-80.8-80.6-107.6a5.9 5.9 0 0 0-8.9 1.4L430 290.29999999999995c-1.7 2.7-1 6.3 1.6 8.1 28.6 20.3 51.9 45.2 71 76h-55.1c-4.4 0-8 3.6-8 8V418c0 4.4 3.6 8 8 8h94.9v18.6h-65.9c-4.4 0-8 3.6-8 8V580c0 4.4 3.6 8 8 8h184.7c4.4 0 8-3.6 8-8v-127.2c0-4.4-3.6-8-8-8h-66.7v-18.6h98.8c4.4 0 8-3.6 8-8v-35.6c0-4.4-3.6-8-8-8h-59c18.1-29.1 41.8-54.3 72.3-76.9 2.6-2.1 3.2-5.9 1.2-8.5z"  horiz-adv-x="1024" />

    
    <glyph glyph-name="file-excel-fill" unicode="&#61784;" d="M854.6 607.3c6-6 9.4-14.1 9.4-22.6V-32c0-17.7-14.3-32-32-32H192c-17.7 0-32 14.3-32 32V800c0 17.7 14.3 32 32 32h424.7c8.5 0 16.7-3.4 22.7-9.4l215.2-215.3zM790.2 570L602 758.2V570h188.2zM575.341 418.161l-61.216-102.307-61.839 102.351a12 12 0 0 1-10.27 5.795h-38.437a12 12 0 0 1-6.406-1.853c-5.604-3.538-7.279-10.949-3.741-16.553l82.333-130.422-83.449-132.787a12 12 0 0 1-1.84-6.385c0-6.627 5.373-12 12-12h34.466a12 12 0 0 1 10.208 5.692l62.707 101.474 62.29-101.445A12 12 0 0 1 582.375 124h37.486a12 12 0 0 1 6.484 1.903c5.577 3.58 7.195 11.004 3.614 16.58l-83.831 130.551 85.296 132.47a12 12 0 0 1 1.91 6.496c0 6.627-5.372 12-12 12h-35.695a12 12 0 0 1-10.297-5.839z"  horiz-adv-x="1024" />

    
    <glyph glyph-name="file-markdown-fill" unicode="&#61792;" d="M854.6 607.3c6-6 9.4-14.1 9.4-22.6V-32c0-17.7-14.3-32-32-32H192c-17.7 0-32 14.3-32 32V800c0 17.7 14.3 32 32 32h424.7c8.5 0 16.7-3.4 22.7-9.4l215.2-215.3zM790.2 570L602 758.2V570h188.2zM426.13 295.07000000000005l59.11-132.975a16.003 16.003 0 0 1 14.624-9.503h24.055c6.33 0 12.065 3.732 14.63 9.518l59.109 133.35v-157.458c0-8.838 7.165-16.003 16.003-16.003h27.337c8.838 0 16.003 7.165 16.003 16.003V409.998c0 8.838-7.165 16.003-16.003 16.003h-34.746a16.003 16.003 0 0 1-14.673-9.616l-79.473-182.587-79.473 182.587A16.003 16.003 0 0 1 417.96 426h-34.958c-8.838 0-16.003-7.165-16.003-16.003v-271.996c0-8.838 7.165-16.003 16.003-16.003h27.126c8.838 0 16.003 7.165 16.003 16.003V295.071z"  horiz-adv-x="1024" />

    
    <glyph glyph-name="file-text-fill" unicode="&#61794;" d="M854.6 607.3c6-6 9.4-14.1 9.4-22.6V-32c0-17.7-14.3-32-32-32H192c-17.7 0-32 14.3-32 32V800c0 17.7 14.3 32 32 32h424.7c8.5 0 16.7-3.4 22.7-9.4l215.2-215.3zM790.2 570L602 758.2V570h188.2zM320 414a8 8 0 0 1-8-8v-48a8 8 0 0 1 8-8h384a8 8 0 0 1 8 8v48a8 8 0 0 1-8 8H320z m0-136a8 8 0 0 1-8-8v-48a8 8 0 0 1 8-8h184a8 8 0 0 1 8 8v48a8 8 0 0 1-8 8H320z"  horiz-adv-x="1024" />

    
    <glyph glyph-name="file-ppt-fill" unicode="&#61782;" d="M854.6 607.3c6-6 9.4-14.1 9.4-22.6V-32c0-17.7-14.3-32-32-32H192c-17.7 0-32 14.3-32 32V800c0 17.7 14.3 32 32 32h424.7c8.5 0 16.7-3.4 22.7-9.4l215.2-215.3zM790.2 570L602 758.2V570h188.2zM468.526 136v91.537h59.277c60.57 0 100.197 39.655 100.197 98.125C628 383.884 588.424 424 528.016 424H424c-6.627 0-12-5.373-12-12v-276c0-6.627 5.373-12 12-12h32.526c6.628 0 12 5.373 12 12z m0 139.326h34.907c47.815 0 67.186 12.937 67.186 50.336 0 32.045-18.117 50.121-49.87 50.121h-52.223v-100.457z"  horiz-adv-x="1024" />

    
    <glyph glyph-name="file-unknown-fill" unicode="&#61796;" d="M854.6 607.3c6-6 9.4-14.1 9.4-22.6V-32c0-17.7-14.3-32-32-32H192c-17.7 0-32 14.3-32 32V800c0 17.7 14.3 32 32 32h424.7c8.5 0 16.7-3.4 22.7-9.4l215.2-215.3zM790.2 570L602 758.2V570h188.2zM402 347c0-5.4 4.4-9.5 9.8-9.5h32.4c5.4 0 9.8 4.2 9.8 9.4 0 28.2 25.8 51.6 58 51.6s58-23.4 58-51.5c0-25.3-21-47.2-49.3-50.9-19.3-2.8-34.5-20.3-34.7-40.1v-32c0-5.5 4.5-10 10-10h32c5.5 0 10 4.5 10 10v12.2c0 6 4 11.5 9.7 13.3 44.6 14.4 75 54 74.3 98.9-0.8 55.5-49.2 100.8-108.5 101.6-61.4 0.7-111.5-45.6-111.5-103z m110-227c17.673 0 32 14.327 32 32 0 17.673-14.327 32-32 32-17.673 0-32-14.327-32-32 0-17.673 14.327-32 32-32z"  horiz-adv-x="1024" />

    
    <glyph glyph-name="file-word-fill" unicode="&#61776;" d="M854.6 607.3c6-6 9.4-14.1 9.4-22.6V-32c0-17.7-14.3-32-32-32H192c-17.7 0-32 14.3-32 32V800c0 17.7 14.3 32 32 32h424.7c8.5 0 16.7-3.4 22.7-9.4l215.2-215.3zM790.2 570L602 758.2V570h188.2zM512 329.905l52.814-197.012a12 12 0 0 1 11.59-8.893h31.78a12 12 0 0 1 11.587 8.878l74.375 276a12 12 0 0 1 0.413 3.122c0 6.627-5.373 12-12 12h-35.576a12 12 0 0 1-11.695-9.31l-45.79-199.105-49.76 199.321A12 12 0 0 1 528.097 424h-32.192a12 12 0 0 1-11.643-9.094l-49.66-198.927-46.096 198.732a12 12 0 0 1-11.69 9.289h-35.381a12 12 0 0 1-3.115-0.411c-6.4-1.72-10.194-8.303-8.474-14.703l74.173-276A12 12 0 0 1 415.606 124h31.99a12 12 0 0 1 11.59 8.893L512 329.905z"  horiz-adv-x="1024" />

    
    <glyph glyph-name="file-zip-fill" unicode="&#61779;" d="M854.6 607.3c6-6 9.4-14.1 9.4-22.6V-32c0-17.7-14.3-32-32-32H192c-17.7 0-32 14.3-32 32V800c0 17.7 14.3 32 32 32h424.7c8.5 0 16.7-3.4 22.7-9.4l215.2-215.3zM790.2 570L602 758.2V570h188.2zM296 760v-64h64v64h-64z m64-64v-64h64v64h-64z m-64-64v-64h64v64h-64z m64-64v-64h64v64h-64z m-64-64v-64h64v64h-64z m64-64v-64h64v64h-64z m-64-64v-64h64v64h-64z m0-64v-160h128V312H296z m48-48h32v-64h-32v64z"  horiz-adv-x="1024" />

    
    <glyph glyph-name="file-pdf-fill" unicode="&#61780;" d="M854.6 607.3c6-6 9.4-14.1 9.4-22.6V-32c0-17.7-14.3-32-32-32H192c-17.7 0-32 14.3-32 32V800c0 17.7 14.3 32 32 32h424.7c8.5 0 16.7-3.4 22.7-9.4l215.2-215.3zM790.2 570L602 758.2V570h188.2zM633.217 258.744c-15.174 0.489-31.314-0.67-49.65-2.964-24.298 14.987-40.654 35.582-52.274 65.827 0.28 1.152 0.86 3.538 1.063 4.38 0.474 1.958 0.867 3.594 1.243 5.185 4.293 18.13 6.615 31.358 7.3 44.695 0.518 10.074-0.04 19.368-1.827 27.976-3.298 18.584-16.454 29.453-33.021 30.126-15.446 0.627-29.649-7.993-33.281-21.373-5.913-21.612-2.45-50.07 10.08-98.582-15.964-38.056-37.052-82.661-51.203-107.539-18.885-9.74-33.604-18.605-45.953-28.427-16.303-12.966-26.48-26.29-29.286-40.306-1.355-6.48 0.692-14.966 5.36-21.912 5.296-7.879 13.282-12.991 22.855-13.735 24.152-1.877 53.83 23.024 86.59 79.258 3.295 1.09 6.78 2.257 11.026 3.69 2.323 0.783 10.464 3.538 11.91 4.026 7.521 2.54 12.98 4.36 18.376 6.116 23.396 7.612 41.096 12.429 57.21 15.163 27.973-14.973 60.316-24.796 82.098-24.796 17.979 0 30.126 9.319 34.515 23.985 3.857 12.886 0.794 27.824-7.473 36.084-8.56 8.41-24.3 12.434-45.658 13.123z m-247.985-128.42v0.36l0.126 0.338c1.275 3.421 3.157 7.008 5.6 10.758 4.284 6.576 10.173 13.5 17.472 20.865 3.92 3.955 8.002 7.8 12.79 12.12 1.073 0.969 7.91 7.059 9.189 8.25l11.176 10.407-8.12-12.934c-12.326-19.638-23.46-33.78-33.013-43.004-3.507-3.387-6.6-5.9-9.091-7.505-1.027-0.662-1.916-1.144-2.613-1.424-0.409-0.163-0.771-0.268-1.13-0.302a2.202 2.202 0 0 0-1.117 0.16 2.068 2.068 0 0 0-1.269 1.911z m125.934 218.269l-2.26-4.007-1.39 4.385c-3.114 9.829-5.387 24.641-6.016 37.997-0.716 15.197 0.49 24.323 5.286 24.323 6.74 0 9.831-10.808 10.076-27.053 0.216-14.28-2.03-29.142-5.696-35.645z m-5.81-58.464l1.534 4.05 2.088-3.795c11.69-21.245 26.858-38.967 43.538-51.315l3.595-2.662-4.38-0.904c-16.328-3.372-31.544-8.457-52.34-16.842 2.174 0.876-21.623-8.863-27.638-11.169l-5.252-2.013 2.802 4.877c12.35 21.496 23.758 47.326 36.052 79.773z m157.626-76.261c-7.864-3.104-24.777-0.329-54.569 12.387l-7.561 3.227 8.199 0.607c23.295 1.724 39.807 0.44 49.422-3.08 4.09-1.498 6.824-3.388 8.037-5.553 1.31-2.336 0.71-4.81-1.362-6.31-0.448-0.427-1.155-0.88-2.166-1.278z"  horiz-adv-x="1024" />

    
    <glyph glyph-name="file-image-fill" unicode="&#61769;" d="M854.6 607.3L639.4 822.6c-6 6-14.2 9.4-22.7 9.4H192c-17.7 0-32-14.3-32-32v-832c0-17.7 14.3-32 32-32h640c17.7 0 32 14.3 32 32V584.7c0 8.5-3.4 16.6-9.4 22.6zM400 494c22.1 0 40-17.9 40-40s-17.9-40-40-40-40 17.9-40 40 17.9 40 40 40z m296-294H328c-6.7 0-10.4 7.7-6.3 12.9l99.8 127.2c3.2 4.1 9.4 4.1 12.6 0l41.1-52.4 77.8 99.2c3.2 4.1 9.4 4.1 12.6 0l136.5-174c4.3-5.2 0.5-12.9-6.1-12.9z m-94 370V758.2L790.2 570H602z"  horiz-adv-x="1024" />

    
    <glyph glyph-name="diff-fill" unicode="&#61799;" d="M854.2 589.4L611.3 823.1c-6 5.7-13.9 8.9-22.2 8.9H296c-4.4 0-8-3.6-8-8v-56c0-4.4 3.6-8 8-8h277l219-210.6V72c0-4.4 3.6-8 8-8h56c4.4 0 8 3.6 8 8V566.4c0 8.7-3.5 17-9.8 23zM553.4 694.6c-6 6-14.1 9.4-22.6 9.4H192c-17.7 0-32-14.3-32-32v-704c0-17.7 14.3-32 32-32h512c17.7 0 32 14.3 32 32V498.7c0 8.5-3.4 16.6-9.4 22.6L553.4 694.6zM568 143c0-3.8-3.4-7-7.5-7h-225c-4.1 0-7.5 3.2-7.5 7v42c0 3.8 3.4 7 7.5 7h225c4.1 0 7.5-3.2 7.5-7v-42z m0 220c0-3.8-3.4-7-7.5-7H476v-84.9c0-3.9-3.1-7.1-7-7.1h-42c-3.8 0-7 3.2-7 7.1V356h-84.5c-4.1 0-7.5 3.2-7.5 7v42c0 3.9 3.4 7 7.5 7H420v84.9c0 3.9 3.2 7.1 7 7.1h42c3.9 0 7-3.2 7-7.1V412h84.5c4.1 0 7.5-3.1 7.5-7v-42z"  horiz-adv-x="1024" />

    
    <glyph glyph-name="file-copy-fill" unicode="&#61801;" d="M832 832H296c-4.4 0-8-3.6-8-8v-56c0-4.4 3.6-8 8-8h496v-688c0-4.4 3.6-8 8-8h56c4.4 0 8 3.6 8 8V800c0 17.7-14.3 32-32 32zM704 704H192c-17.7 0-32-14.3-32-32v-530.7c0-8.5 3.4-16.6 9.4-22.6l173.3-173.3c2.2-2.2 4.7-4 7.4-5.5v-1.9h4.2c3.5-1.3 7.2-2 11-2H704c17.7 0 32 14.3 32 32V672c0 17.7-14.3 32-32 32zM382 0h-0.2L232 149.79999999999995v0.2h150v-150z"  horiz-adv-x="1024" />

    
    <glyph glyph-name="idcard-fill" unicode="&#61584;" d="M373 485c-28.5 0-51.7-23.3-51.7-52s23.2-52 51.7-52 51.7 23.3 51.7 52-23.2 52-51.7 52zM928 736H96c-17.7 0-32-14.3-32-32v-640c0-17.7 14.3-32 32-32h832c17.7 0 32 14.3 32 32V704c0 17.7-14.3 32-32 32zM608 476c0 4.4 1 8 2.3 8h123.4c1.3 0 2.3-3.6 2.3-8v-48c0-4.4-1-8-2.3-8H610.3c-1.3 0-2.3 3.6-2.3 8v48z m-86-253h-43.9c-4.2 0-7.6 3.3-7.9 7.5-3.8 50.5-46 90.5-97.2 90.5s-93.4-40-97.2-90.5c-0.3-4.2-3.7-7.5-7.9-7.5H224c-4.6 0-8.2 3.8-8 8.4 2.8 53.3 32 99.7 74.6 126.1-18.1 19.9-29.1 46.4-29.1 75.5 0 61.9 49.9 112 111.4 112s111.4-50.1 111.4-112c0-29.1-11-55.5-29.1-75.5 42.7-26.5 71.8-72.8 74.6-126.1 0.4-4.6-3.2-8.4-7.8-8.4z m278.9 53H615.1c-3.9 0-7.1 3.6-7.1 8v48c0 4.4 3.2 8 7.1 8h185.7c3.9 0 7.1-3.6 7.1-8v-48h0.1c0-4.4-3.2-8-7.1-8z"  horiz-adv-x="1024" />

    
    <glyph glyph-name="read-fill" unicode="&#61573;" d="M928 735H699.2c-49.1 0-97.1-14.1-138.4-40.7L512 663l-48.8 31.3C422 720.9 373.9 735 324.8 735H96c-17.7 0-32-14.3-32-32v-568c0-17.7 14.3-32 32-32h228.8c49.1 0 97.1-14.1 138.4-40.7l44.4-28.6c1.3-0.8 2.8-1.3 4.3-1.3s3 0.4 4.3 1.3l44.4 28.6C602 88.89999999999998 650.1 103 699.2 103H928c17.7 0 32 14.3 32 32V703c0 17.7-14.3 32-32 32zM404 342.5c0-4.1-3.2-7.5-7.1-7.5H211.1c-3.9 0-7.1 3.4-7.1 7.5v45c0 4.1 3.2 7.5 7.1 7.5h185.7c3.9 0 7.1-3.4 7.1-7.5v-45z m0 140c0-4.1-3.2-7.5-7.1-7.5H211.1c-3.9 0-7.1 3.4-7.1 7.5v45c0 4.1 3.2 7.5 7.1 7.5h185.7c3.9 0 7.1-3.4 7.1-7.5v-45z m416-140c0-4.1-3.2-7.5-7.1-7.5H627.1c-3.9 0-7.1 3.4-7.1 7.5v45c0 4.1 3.2 7.5 7.1 7.5h185.7c3.9 0 7.1-3.4 7.1-7.5v-45z m0 140c0-4.1-3.2-7.5-7.1-7.5H627.1c-3.9 0-7.1 3.4-7.1 7.5v45c0 4.1 3.2 7.5 7.1 7.5h185.7c3.9 0 7.1-3.4 7.1-7.5v-45z"  horiz-adv-x="1024" />

    
    <glyph glyph-name="flag-fill" unicode="&#61766;" d="M880 591H624V704c0 17.7-14.3 32-32 32H184v40c0 4.4-3.6 8-8 8h-56c-4.4 0-8-3.6-8-8v-784c0-4.4 3.6-8 8-8h56c4.4 0 8 3.6 8 8V256h248v-113c0-17.7 14.3-32 32-32h416c17.7 0 32 14.3 32 32V559c0 17.7-14.3 32-32 32z"  horiz-adv-x="1024" />

    
    <glyph glyph-name="gift-fill" unicode="&#61541;" d="M160 2c0-17.7 14.3-32 32-32h286V346H160v-344zM546-30h286c17.7 0 32 14.3 32 32V346H546v-376zM880 586H732.4c13.6 21.4 21.6 46.8 21.6 74 0 76.1-61.9 138-138 138-41.4 0-78.7-18.4-104-47.4-25.3 29-62.6 47.4-104 47.4-76.1 0-138-61.9-138-138 0-27.2 7.9-52.6 21.6-74H144c-17.7 0-32-14.3-32-32v-140h366V586h68v-172h366V554c0 17.7-14.3 32-32 32z m-402 4h-70c-38.6 0-70 31.4-70 70s31.4 70 70 70 70-31.4 70-70v-70z m138 0h-70v70c0 38.6 31.4 70 70 70s70-31.4 70-70-31.4-70-70-70z"  horiz-adv-x="1024" />

    
    <glyph glyph-name="home-fill" unicode="&#61555;" d="M946.5 391L534.6 802.6c-12.5 12.5-32.7 12.5-45.2 0L77.5 391c-12-12-18.8-28.3-18.8-45.3 0-35.3 28.7-64 64-64h43.4V-12c0-17.7 14.3-32 32-32H448V180h112v-224h265.9c17.7 0 32 14.3 32 32V281.70000000000005h43.4c17 0 33.3 6.7 45.3 18.8 24.9 25 24.9 65.5-0.1 90.5z"  horiz-adv-x="1024" />

    
    <glyph glyph-name="experiment-fill" unicode="&#61586;" d="M218.9 259.70000000000005l42.6-26.6c0.1-0.1 0.3-0.2 0.4-0.3l12.7-8 0.3-0.3c28.3-16.4 60.5-25.1 94.1-25.1 44.9 0 87.2 15.7 121 43.8 45.9 38.4 103.8 59.9 164.9 59.9 52.3 0 102.2-15.7 144.6-44.5l7.9-5-111.6 289V716.2h63.5c4.4 0 8 3.6 8 8V776c0 4.4-3.6 8-8 8H264.7c-4.4 0-8-3.6-8-8v-51.9c0-4.4 3.6-8 8-8h63.5v-173.6L218.9 259.70000000000005z m333 203.1c22 0 39.9-17.9 39.9-39.9S573.9 383 551.9 383 512 400.9 512 422.9s17.9 39.9 39.9 39.9zM878 70.89999999999998l-29.9 77.4-85.7 53.5-0.1-0.1c-0.7 0.5-1.5 1-2.2 1.5l-8.1 5-0.3 0.3c-29 17.5-62.3 26.8-97 26.8-44.9 0-87.2-15.7-121-43.8-45.9-38.4-103.8-59.9-164.9-59.9-53 0-103.5 16.1-146.2 45.6l-28.9 18.1L146 70.89999999999998c-2.8-7.4-4.3-15.2-4.3-23 0-35.2 28.6-63.8 63.8-63.8h612.9c7.9 0 15.7 1.5 23 4.3 33 12.6 49.4 49.6 36.6 82.5z"  horiz-adv-x="1024" />

    
    <glyph glyph-name="eye-fill" unicode="&#61495;" d="M508 384m-112 0a112 112 0 1 1 224 0 112 112 0 1 1-224 0ZM942.2 409.8C847.4 609.5 704.1 710 512 710c-192.2 0-335.4-100.5-430.2-300.3-7.7-16.2-7.7-35.2 0-51.5C176.6 158.5 319.9 58 512 58c192.2 0 335.4 100.5 430.2 300.3 7.7 16.2 7.7 35 0 51.5zM508 208c-97.2 0-176 78.8-176 176s78.8 176 176 176 176-78.8 176-176-78.8-176-176-176z"  horiz-adv-x="1024" />

    
    <glyph glyph-name="like-fill" unicode="&#61527;" d="M885.9 362.29999999999995c16.8 22.2 26.1 49.4 26.1 77.7 0 44.9-25.1 87.4-65.5 111.1a67.67 67.67 0 0 1-34.3 9.3H572.4l6 122.9c1.4 29.7-9.1 57.9-29.5 79.4-20.5 21.5-48.1 33.4-77.9 33.4-52 0-98-35-111.8-85.1l-85.9-311h-0.3v-428h472.3c9.2 0 18.2 1.8 26.5 5.4 47.6 20.3 78.3 66.8 78.3 118.4 0 12.6-1.8 25-5.4 37 16.8 22.2 26.1 49.4 26.1 77.7 0 12.6-1.8 25-5.4 37 16.8 22.2 26.1 49.4 26.1 77.7-0.2 12.6-2 25.1-5.6 37.1zM112 368v-364c0-17.7 14.3-32 32-32h65V400h-65c-17.7 0-32-14.3-32-32z"  horiz-adv-x="1024" />

    
    <glyph glyph-name="lock-fill" unicode="&#61536;" d="M832 432h-68V656c0 70.7-57.3 128-128 128H388c-70.7 0-128-57.3-128-128v-224h-68c-17.7 0-32-14.3-32-32v-384c0-17.7 14.3-32 32-32h640c17.7 0 32 14.3 32 32V400c0 17.7-14.3 32-32 32zM540 195v-53c0-4.4-3.6-8-8-8h-40c-4.4 0-8 3.6-8 8v53c-12.1 8.7-20 22.9-20 39 0 26.5 21.5 48 48 48s48-21.5 48-48c0-16.1-7.9-30.3-20-39z m152 237H332V656c0 30.9 25.1 56 56 56h248c30.9 0 56-25.1 56-56v-224z"  horiz-adv-x="1024" />

    
    <glyph glyph-name="unlike-fill" unicode="&#61526;" d="M885.9 405.7c3.6 12 5.4 24.4 5.4 37 0 28.3-9.3 55.5-26.1 77.7 3.6 12 5.4 24.4 5.4 37 0 28.3-9.3 55.5-26.1 77.7 3.6 12 5.4 24.4 5.4 37 0 51.6-30.7 98.1-78.3 118.4-8.3 3.6-17.2 5.4-26.5 5.4H273v-428h0.3l85.8-310.8C372.9 7 418.9-28 470.9-28c29.7 0 57.4 11.8 77.9 33.4 20.5 21.5 31 49.7 29.5 79.4l-6 122.9h239.9c12.1 0 23.9 3.2 34.3 9.3 40.4 23.5 65.5 66.1 65.5 111 0 28.3-9.3 55.5-26.1 77.7zM112 764v-364c0-17.7 14.3-32 32-32h65V796h-65c-17.7 0-32-14.3-32-32z"  horiz-adv-x="1024" />

    
    <glyph glyph-name="unlock-fill" unicode="&#61537;" d="M832 432H332V656c0 30.9 25.1 56 56 56h248c30.9 0 56-25.1 56-56v-68c0-4.4 3.6-8 8-8h56c4.4 0 8 3.6 8 8v68c0 70.7-57.3 128-128 128H388c-70.7 0-128-57.3-128-128v-224h-68c-17.7 0-32-14.3-32-32v-384c0-17.7 14.3-32 32-32h640c17.7 0 32 14.3 32 32V400c0 17.7-14.3 32-32 32zM540 195v-53c0-4.4-3.6-8-8-8h-40c-4.4 0-8 3.6-8 8v53c-12.1 8.7-20 22.9-20 39 0 26.5 21.5 48 48 48s48-21.5 48-48c0-16.1-7.9-30.3-20-39z"  horiz-adv-x="1024" />

    
    <glyph glyph-name="bank-fill" unicode="&#61556;" d="M894 434c30.9 0 43.8 39.7 18.7 58L530.8 769.8a31.81 31.81 0 0 1-37.6 0L111.3 492c-25.1-18.2-12.2-58 18.8-58H192v-374h-72c-4.4 0-8-3.6-8-8v-52c0-4.4 3.6-8 8-8h784c4.4 0 8 3.6 8 8v52c0 4.4-3.6 8-8 8h-72V434h62zM381 60H264V434h117v-374z m189 0H453V434h117v-374z m190 0H642V434h118v-374z"  horiz-adv-x="1024" />

    
    <glyph glyph-name="camera-fill" unicode="&#61543;" d="M864 636H728l-32.4 90.8C691 739.5 679 748 665.4 748H358.6c-13.5 0-25.6-8.5-30.1-21.2L296 636H160c-44.2 0-80-35.8-80-80v-456c0-44.2 35.8-80 80-80h704c44.2 0 80 35.8 80 80V556c0 44.2-35.8 80-80 80zM512 180c-88.4 0-160 71.6-160 160s71.6 160 160 160 160-71.6 160-160-71.6-160-160-160zM512 340m-96 0a96 96 0 1 1 192 0 96 96 0 1 1-192 0Z"  horiz-adv-x="1024" />

    
    <glyph glyph-name="error-fill" unicode="&#61559;" d="M955.7 40l-416 720c-6.2 10.7-16.9 16-27.7 16s-21.6-5.3-27.7-16l-416-720C56 18.600000000000023 71.4-8 96-8h832c24.6 0 40 26.6 27.7 48zM480 480c0 4.4 3.6 8 8 8h48c4.4 0 8-3.6 8-8v-184c0-4.4-3.6-8-8-8h-48c-4.4 0-8 3.6-8 8V480z m32-352c-26.5 0-48 21.5-48 48s21.5 48 48 48 48-21.5 48-48-21.5-48-48-48z"  horiz-adv-x="1024" />

    
    <glyph glyph-name="printer-fill" unicode="&#61591;" d="M732 776c0 4.4-3.6 8-8 8H300c-4.4 0-8-3.6-8-8v-148h440V776zM852 564H172c-44.2 0-80-35.8-80-80v-328c0-17.7 14.3-32 32-32h168v-132c0-4.4 3.6-8 8-8h424c4.4 0 8 3.6 8 8V124h168c17.7 0 32 14.3 32 32V484c0 44.2-35.8 80-80 80zM664 52H360V328h304v-276z m164 360c0-4.4-3.6-8-8-8h-40c-4.4 0-8 3.6-8 8v40c0 4.4 3.6 8 8 8h40c4.4 0 8-3.6 8-8v-40z"  horiz-adv-x="1024" />

    
    <glyph glyph-name="setting-fill" unicode="&#61751;" d="M512.5 505.4c-29.9 0-57.9-11.6-79.1-32.8-21.1-21.2-32.8-49.2-32.8-79.1 0-29.9 11.7-57.9 32.8-79.1 21.2-21.1 49.2-32.8 79.1-32.8 29.9 0 57.9 11.7 79.1 32.8 21.1 21.2 32.8 49.2 32.8 79.1 0 29.9-11.7 57.9-32.8 79.1-21.2 21.2-49.2 32.8-79.1 32.8zM924.8 269.9l-65.4 55.9c3.1 19 4.7 38.4 4.7 57.7s-1.6 38.8-4.7 57.7l65.4 55.9c10.1 8.6 13.8 22.6 9.3 35.2l-0.9 2.6c-18.1 50.4-44.8 96.8-79.6 137.7l-1.8 2.1c-8.6 10.1-22.5 13.9-35.1 9.5l-81.2-28.9c-30 24.6-63.4 44-99.6 57.5l-15.7 84.9c-2.4 13.1-12.7 23.3-25.8 25.7l-2.7 0.5c-52 9.4-106.8 9.4-158.8 0l-2.7-0.5c-13.1-2.4-23.4-12.6-25.8-25.7l-15.8-85.3c-35.9-13.6-69.1-32.9-98.9-57.3l-81.8 29.1c-12.5 4.4-26.5 0.7-35.1-9.5l-1.8-2.1c-34.8-41.1-61.5-87.4-79.6-137.7l-0.9-2.6c-4.5-12.5-0.8-26.5 9.3-35.2l66.2-56.5c-3.1-18.8-4.6-38-4.6-57 0-19.2 1.5-38.4 4.6-57l-66-56.5c-10.1-8.6-13.8-22.6-9.3-35.2l0.9-2.6c18.1-50.3 44.8-96.8 79.6-137.7l1.8-2.1c8.6-10.1 22.5-13.9 35.1-9.5l81.8 29.1c29.8-24.5 63-43.9 98.9-57.3l15.8-85.3c2.4-13.1 12.7-23.3 25.8-25.7l2.7-0.5c26.1-4.7 52.7-7.1 79.4-7.1 26.7 0 53.4 2.4 79.4 7.1l2.7 0.5c13.1 2.4 23.4 12.6 25.8 25.7l15.7 84.9c36.2 13.6 69.6 32.9 99.6 57.5l81.2-28.9c12.5-4.4 26.5-0.7 35.1 9.5l1.8 2.1c34.8 41.1 61.5 87.4 79.6 137.7l0.9 2.6c4.3 12.4 0.6 26.3-9.5 35z m-412.3-52.2c-97.1 0-175.8 78.7-175.8 175.8s78.7 175.8 175.8 175.8 175.8-78.7 175.8-175.8-78.7-175.8-175.8-175.8z"  horiz-adv-x="1024" />

    
    <glyph glyph-name="sliders-fill" unicode="&#61589;" d="M904 600h-66v96c0 4.4-3.6 8-8 8h-52c-4.4 0-8-3.6-8-8v-96h-66c-4.4 0-8-3.6-8-8v-416c0-4.4 3.6-8 8-8h66v-96c0-4.4 3.6-8 8-8h52c4.4 0 8 3.6 8 8v96h66c4.4 0 8 3.6 8 8V592c0 4.4-3.6 8-8 8zM320 672h-66v56c0 4.4-3.6 8-8 8h-52c-4.4 0-8-3.6-8-8v-56h-66c-4.4 0-8-3.6-8-8v-560c0-4.4 3.6-8 8-8h66v-56c0-4.4 3.6-8 8-8h52c4.4 0 8 3.6 8 8v56h66c4.4 0 8 3.6 8 8V664c0 4.4-3.6 8-8 8zM612 492h-66V664c0 4.4-3.6 8-8 8h-52c-4.4 0-8-3.6-8-8v-172h-66c-4.4 0-8-3.6-8-8v-200c0-4.4 3.6-8 8-8h66v-172c0-4.4 3.6-8 8-8h52c4.4 0 8 3.6 8 8V276h66c4.4 0 8 3.6 8 8V484c0 4.4-3.6 8-8 8z"  horiz-adv-x="1024" />

    
    </font>
</defs>
</svg>
